<svg id="visual" viewBox="0 0 1920 1080" width="1920" height="1080" xmlns="http://www.w3.org/2000/svg" xmlns:xlink="http://www.w3.org/1999/xlink" version="1.1"><rect width="1920" height="1080" fill="#151515"></rect><g><g transform="translate(1362 480)"><path d="M9.7 -1.2C11.5 2.5 11.3 8.9 8 11.4C4.7 13.9 -1.7 12.5 -5.9 9.2C-10.1 5.9 -12.1 0.6 -10.8 -2.4C-9.4 -5.5 -4.7 -6.3 -0.4 -6.2C3.9 -6.1 7.8 -4.9 9.7 -1.2Z" fill="none" stroke="#0e4a86" stroke-width="1"></path></g><g transform="translate(1592 1044)"><path d="M1 -0.5C1.2 0.2 1.1 0.9 0.6 1.4C0.1 1.9 -0.9 2.2 -1.5 1.9C-2 1.5 -2.2 0.4 -1.9 -0.6C-1.5 -1.5 -0.8 -2.3 -0.2 -2.2C0.4 -2.2 0.8 -1.3 1 -0.5Z" fill="none" stroke="#0e4a86" stroke-width="1"></path></g><g transform="translate(617 1059)"><path d="M7.4 -2.7C8.1 -0.1 6.3 3 3.6 4.9C1 6.7 -2.4 7.4 -4.3 6C-6.3 4.5 -6.8 1.1 -5.8 -1.8C-4.8 -4.7 -2.4 -7.1 0.5 -7.2C3.3 -7.4 6.7 -5.3 7.4 -2.7Z" fill="none" stroke="#0e4a86" stroke-width="1"></path></g><g transform="translate(600 225)"><path d="M1.6 -0.7C1.8 0 1.4 0.7 0.6 1.5C-0.2 2.2 -1.5 3 -1.9 2.7C-2.3 2.3 -1.8 0.9 -1.4 -0.1C-0.9 -1.2 -0.5 -1.9 0.1 -2C0.7 -2 1.4 -1.4 1.6 -0.7Z" fill="none" stroke="#0e4a86" stroke-width="1"></path></g><g transform="translate(1435 384)"><path d="M4.1 -1.8C4.8 0.8 4.5 3.3 3 4.5C1.5 5.7 -1.3 5.7 -3.5 4.2C-5.7 2.7 -7.4 -0.1 -6.8 -2.7C-6.1 -5.3 -3 -7.6 -0.7 -7.4C1.7 -7.2 3.4 -4.4 4.1 -1.8Z" fill="none" stroke="#0e4a86" stroke-width="1"></path></g><g transform="translate(355 343)"><path d="M4.7 -3.2C5.6 1.2 5.5 4.3 3.1 6.6C0.7 8.9 -4 10.4 -6.9 8.5C-9.8 6.6 -11 1.3 -9.5 -3.9C-8.1 -9.1 -4 -14.3 -1.1 -14C1.9 -13.6 3.8 -7.7 4.7 -3.2Z" fill="none" stroke="#0e4a86" stroke-width="1"></path></g><g transform="translate(153 199)"><path d="M11.8 -2.6C13.2 0.6 10.9 6.3 7 8.9C3.1 11.6 -2.4 11.3 -5.5 8.8C-8.6 6.2 -9.3 1.5 -8 -1.6C-6.7 -4.7 -3.3 -6.2 0.9 -6.5C5.2 -6.8 10.3 -5.9 11.8 -2.6Z" fill="none" stroke="#0e4a86" stroke-width="1"></path></g><g transform="translate(1199 117)"><path d="M3.9 -1.5C4.3 0 3.4 1.7 2.3 2.4C1.2 3 -0.2 2.5 -1.5 1.7C-2.8 0.8 -4 -0.5 -3.8 -1.7C-3.5 -3 -1.8 -4.4 0 -4.4C1.8 -4.4 3.5 -3 3.9 -1.5Z" fill="none" stroke="#0e4a86" stroke-width="1"></path></g><g transform="translate(1829 926)"><path d="M2.6 -0.8C3 0.2 2.5 1.6 1.6 2.2C0.7 2.9 -0.7 2.9 -1.8 2.2C-2.9 1.5 -3.6 0.1 -3.2 -1C-2.9 -2.1 -1.4 -2.8 -0.1 -2.7C1.1 -2.7 2.3 -1.9 2.6 -0.8Z" fill="none" stroke="#0e4a86" stroke-width="1"></path></g><g transform="translate(1012 998)"><path d="M11.5 -4.6C12.3 -1.3 8.5 2.6 4.5 5.3C0.5 8 -3.8 9.5 -5.6 8.1C-7.4 6.6 -6.9 2.3 -5.6 -1.8C-4.2 -5.8 -2.1 -9.6 1.6 -10.1C5.3 -10.7 10.7 -7.9 11.5 -4.6Z" fill="none" stroke="#0e4a86" stroke-width="1"></path></g><g transform="translate(736 677)"><path d="M2.1 -0.2C2.8 1.5 3.6 3.7 2.4 4.9C1.3 6 -1.6 6.2 -2.9 5C-4.2 3.9 -3.7 1.4 -2.9 -0.4C-2.2 -2.1 -1.1 -3.2 -0.2 -3.1C0.7 -3.1 1.4 -1.9 2.1 -0.2Z" fill="none" stroke="#0e4a86" stroke-width="1"></path></g><g transform="translate(162 710)"><path d="M4.7 -0.1C6.2 3.3 7.8 8.1 6.1 9.5C4.5 11 -0.4 9.1 -3.3 6.5C-6.2 4 -7.2 0.6 -6.3 -1.8C-5.5 -4.3 -2.7 -6 -0.6 -5.8C1.6 -5.6 3.1 -3.6 4.7 -0.1Z" fill="none" stroke="#0e4a86" stroke-width="1"></path></g><g transform="translate(708 350)"><path d="M8.2 -3.2C9.4 0.9 8.1 5.2 5.1 7.5C2.1 9.7 -2.6 10 -4.6 8.1C-6.5 6.3 -5.6 2.4 -4.3 -1.7C-3.1 -5.9 -1.5 -10.2 1 -10.6C3.5 -10.9 7.1 -7.2 8.2 -3.2Z" fill="none" stroke="#0e4a86" stroke-width="1"></path></g><g transform="translate(342 28)"><path d="M2.3 -0.8C2.9 1.1 3.2 3 2.5 3.6C1.7 4.2 -0.2 3.6 -1.7 2.5C-3.1 1.4 -4.1 -0.1 -3.7 -1.7C-3.4 -3.3 -1.7 -5 -0.4 -4.9C0.9 -4.7 1.7 -2.8 2.3 -0.8Z" fill="none" stroke="#0e4a86" stroke-width="1"></path></g><g transform="translate(347 596)"><path d="M1.8 -0.6C2 0.1 1.6 0.9 0.8 1.6C0 2.4 -1.4 3 -2.2 2.5C-3 2 -3.4 0.4 -3 -0.6C-2.5 -1.6 -1.3 -2 -0.2 -1.9C0.8 -1.9 1.6 -1.3 1.8 -0.6Z" fill="none" stroke="#0e4a86" stroke-width="1"></path></g><g transform="translate(632 318)"><path d="M6 -2.2C6.9 0.8 6.1 4 3.9 5.7C1.7 7.4 -1.9 7.5 -4.4 5.7C-7 4 -8.4 0.4 -7.5 -2.6C-6.6 -5.6 -3.3 -7.9 -0.4 -7.8C2.6 -7.7 5.1 -5.1 6 -2.2Z" fill="none" stroke="#0e4a86" stroke-width="1"></path></g><g transform="translate(1755 601)"><path d="M6.6 -1.4C7.9 2 8 6.6 5.8 8.2C3.6 9.9 -0.9 8.6 -3 6.5C-5.1 4.4 -4.9 1.4 -4 -1.3C-3.1 -4 -1.6 -6.6 0.5 -6.7C2.6 -6.9 5.2 -4.7 6.6 -1.4Z" fill="none" stroke="#0e4a86" stroke-width="1"></path></g><g transform="translate(1766 443)"><path d="M8.7 -2.6C9.6 -0.3 7.3 3.3 4.2 5.6C1 7.8 -2.9 8.7 -6.5 6.6C-10.1 4.6 -13.3 -0.4 -12.2 -3.2C-11 -6 -5.5 -6.6 -0.8 -6.3C4 -6.1 7.9 -5 8.7 -2.6Z" fill="none" stroke="#0e4a86" stroke-width="1"></path></g><g transform="translate(1425 802)"><path d="M1.4 -0.7C1.7 0.4 1.6 1.3 1.1 1.8C0.5 2.2 -0.6 2.3 -1.6 1.6C-2.7 1 -3.8 -0.3 -3.5 -1.3C-3.2 -2.4 -1.6 -3.2 -0.5 -3.1C0.6 -2.9 1.1 -1.7 1.4 -0.7Z" fill="none" stroke="#0e4a86" stroke-width="1"></path></g><g transform="translate(974 488)"><path d="M4.4 -2.2C4.8 -0.2 3.5 1.5 1.5 3.2C-0.5 4.9 -3.3 6.7 -4.5 5.9C-5.7 5.1 -5.2 1.8 -4.2 -1.1C-3.2 -4 -1.6 -6.4 0.2 -6.5C2 -6.6 4 -4.3 4.4 -2.2Z" fill="none" stroke="#0e4a86" stroke-width="1"></path></g><g transform="translate(1450 30)"><path d="M5 -1.6C5.5 0.2 4.5 2.5 2.8 3.7C1 5 -1.4 5.1 -2.3 4.2C-3.2 3.3 -2.6 1.3 -1.9 -0.5C-1.3 -2.3 -0.6 -4 0.8 -4.2C2.2 -4.5 4.4 -3.3 5 -1.6Z" fill="none" stroke="#0e4a86" stroke-width="1"></path></g><g transform="translate(736 533)"><path d="M2.4 -0.7C2.8 0.7 2.9 2.4 1.9 3.3C0.9 4.1 -1.2 4.3 -2.6 3.3C-4 2.3 -4.7 0.3 -4.2 -1.2C-3.6 -2.7 -1.8 -3.6 -0.4 -3.4C0.9 -3.3 1.9 -2.1 2.4 -0.7Z" fill="none" stroke="#0e4a86" stroke-width="1"></path></g><g transform="translate(1224 217)"><path d="M1.6 -0.5C1.7 -0.1 1.2 0.4 0.8 0.7C0.3 1 -0.2 1 -0.8 0.7C-1.3 0.4 -1.9 -0.2 -1.8 -0.6C-1.7 -0.9 -0.8 -0.9 0 -0.9C0.7 -0.9 1.5 -0.8 1.6 -0.5Z" fill="none" stroke="#0e4a86" stroke-width="1"></path></g><g transform="translate(1299 596)"><path d="M5.4 -1.3C6.3 0.9 5.7 3.9 3.8 5.3C2 6.6 -1.1 6.2 -2.7 4.9C-4.2 3.5 -4.1 1.1 -3.4 -0.8C-2.7 -2.7 -1.3 -4.2 0.5 -4.4C2.3 -4.5 4.6 -3.4 5.4 -1.3Z" fill="none" stroke="#0e4a86" stroke-width="1"></path></g><g transform="translate(246 836)"><path d="M2.1 -0.8C2.3 -0.1 1.7 0.7 0.9 1.4C0 2 -1.1 2.5 -1.7 2.1C-2.4 1.7 -2.6 0.4 -2.3 -0.5C-1.9 -1.4 -1 -1.9 0 -1.9C1 -1.9 1.9 -1.4 2.1 -0.8Z" stroke="#0e4a86" fill="none" stroke-width="1"></path></g><g transform="translate(13 285)"><path d="M5.5 -2.2C6.7 1.9 6.9 5.8 4.8 7.6C2.6 9.4 -1.8 9.1 -5.7 6.6C-9.5 4.1 -12.7 -0.6 -11.7 -4.4C-10.6 -8.3 -5.3 -11.5 -1.6 -10.9C2.2 -10.4 4.3 -6.3 5.5 -2.2Z" stroke="#0e4a86" fill="none" stroke-width="1"></path></g><g transform="translate(307 364)"><path d="M11.1 -3.3C12.8 1.6 11.5 7.8 8.2 9.8C5 11.8 -0.2 9.6 -3.7 6.7C-7.3 3.8 -9.2 0.1 -8.3 -3.7C-7.4 -7.5 -3.7 -11.4 0.5 -11.5C4.7 -11.7 9.4 -8.1 11.1 -3.3Z" stroke="#0e4a86" fill="none" stroke-width="1"></path></g><g transform="translate(487 1001)"><path d="M5.6 -0.5C7 2.5 7.8 7.1 4.8 10.1C1.8 13.1 -4.9 14.6 -9.7 11.6C-14.5 8.5 -17.4 1 -15.4 -2.8C-13.5 -6.7 -6.7 -6.7 -2.3 -6C2.1 -5.2 4.2 -3.6 5.6 -0.5Z" stroke="#0e4a86" fill="none" stroke-width="1"></path></g><g transform="translate(513 15)"><path d="M3.4 -1C4 0.9 4 3.2 2.8 4.2C1.6 5.1 -0.8 4.8 -2.9 3.4C-5 2.1 -6.7 -0.3 -6.1 -2.2C-5.6 -4 -2.8 -5.2 -0.7 -5C1.4 -4.8 2.7 -3 3.4 -1Z" stroke="#0e4a86" fill="none" stroke-width="1"></path></g><g transform="translate(1884 821)"><path d="M7.8 -2.4C8.5 -0.4 6.3 2.6 3.6 4.5C0.9 6.4 -2.4 7.1 -5 5.6C-7.6 4 -9.6 0.1 -8.6 -2.2C-7.7 -4.6 -3.8 -5.5 -0.1 -5.4C3.6 -5.4 7.1 -4.4 7.8 -2.4Z" stroke="#0e4a86" fill="none" stroke-width="1"></path></g><g transform="translate(423 26)"><path d="M5.9 -1.6C6.8 1 6.3 4.5 3.8 6.7C1.2 8.9 -3.3 9.8 -5 8.3C-6.6 6.7 -5.4 2.7 -4.1 -0.4C-2.8 -3.6 -1.4 -5.8 0.5 -6C2.5 -6.1 4.9 -4.3 5.9 -1.6Z" stroke="#0e4a86" fill="none" stroke-width="1"></path></g><g transform="translate(1514 482)"><path d="M9.3 -2.6C10.5 0.8 9 5.5 6.1 7.4C3.2 9.2 -1 8.2 -3.2 6.2C-5.4 4.2 -5.5 1.2 -4.7 -1.7C-3.8 -4.6 -1.9 -7.3 1.1 -7.7C4 -8 8 -6 9.3 -2.6Z" stroke="#0e4a86" fill="none" stroke-width="1"></path></g><g transform="translate(264 938)"><path d="M3 -1.1C3.4 0.3 2.9 1.8 1.8 2.6C0.7 3.4 -1 3.6 -2.5 2.6C-4.1 1.7 -5.5 -0.3 -5 -1.7C-4.6 -3.2 -2.3 -4.1 -0.5 -3.9C1.3 -3.8 2.6 -2.5 3 -1.1Z" stroke="#0e4a86" fill="none" stroke-width="1"></path></g><g transform="translate(1449 940)"><path d="M5.8 -1.9C6.7 0.9 6.1 4.2 3.5 6.6C0.8 9 -3.9 10.4 -7 8.4C-10.1 6.4 -11.7 1.1 -10.3 -2.4C-8.9 -5.9 -4.4 -7.6 -1 -7.3C2.4 -6.9 4.9 -4.7 5.8 -1.9Z" stroke="#0e4a86" fill="none" stroke-width="1"></path></g><g transform="translate(1488 366)"><path d="M1.9 -0.5C2.4 0.7 2.5 2.1 1.4 3.1C0.4 4.1 -1.7 4.6 -2.5 3.9C-3.2 3.2 -2.7 1.3 -2.1 -0.2C-1.4 -1.7 -0.7 -2.7 0 -2.7C0.8 -2.7 1.5 -1.7 1.9 -0.5Z" stroke="#0e4a86" fill="none" stroke-width="1"></path></g><g transform="translate(472 844)"><path d="M5 -0.9C5.6 0.4 4.8 2.9 3.1 4C1.4 5.2 -1.1 5 -2.5 3.9C-4 2.7 -4.5 0.6 -3.9 -0.7C-3.3 -1.9 -1.6 -2.1 0.3 -2.2C2.2 -2.3 4.3 -2.2 5 -0.9Z" stroke="#0e4a86" fill="none" stroke-width="1"></path></g><g transform="translate(3 458)"><path d="M2.8 -0.5C3.4 0.8 3.4 2.7 1.9 4.2C0.3 5.7 -2.7 6.8 -4.7 5.6C-6.8 4.3 -7.8 0.7 -6.8 -1.1C-5.8 -3 -2.9 -3.1 -0.9 -2.8C1.1 -2.5 2.3 -1.8 2.8 -0.5Z" stroke="#0e4a86" fill="none" stroke-width="1"></path></g><g transform="translate(1117 816)"><path d="M2.6 -0.8C3.1 0.5 2.9 2.1 1.8 3C0.8 3.9 -1.2 4.1 -2.5 3.2C-3.9 2.3 -4.6 0.3 -4.1 -1.1C-3.6 -2.5 -1.8 -3.4 -0.4 -3.2C1.1 -3.1 2.2 -2.1 2.6 -0.8Z" stroke="#0e4a86" fill="none" stroke-width="1"></path></g><g transform="translate(580 824)"><path d="M2.8 -1.1C3.3 0.7 3.2 2.5 2.2 3.2C1.3 3.9 -0.5 3.6 -2 2.6C-3.4 1.6 -4.3 -0.1 -3.9 -1.7C-3.5 -3.4 -1.8 -5.1 -0.3 -4.9C1.1 -4.8 2.2 -3 2.8 -1.1Z" stroke="#0e4a86" fill="none" stroke-width="1"></path></g><g transform="translate(1366 312)"><path d="M6 -2.3C6.7 0 5.3 2.7 3.4 3.9C1.4 5.1 -1 4.9 -2.9 3.5C-4.9 2.2 -6.5 -0.2 -5.9 -2.4C-5.4 -4.6 -2.7 -6.6 0 -6.6C2.7 -6.6 5.4 -4.6 6 -2.3Z" stroke="#0e4a86" fill="none" stroke-width="1"></path></g><g transform="translate(1498 247)"><path d="M6.2 -2.9C6.6 -0.9 4.4 1.1 2.2 2.5C0 4 -2.1 5 -3.3 4.2C-4.5 3.4 -4.7 0.9 -4 -1.6C-3.3 -4.1 -1.6 -6.5 0.6 -6.8C2.9 -7 5.9 -4.9 6.2 -2.9Z" stroke="#0e4a86" fill="none" stroke-width="1"></path></g><g transform="translate(509 649)"><path d="M6.8 -2.9C8.1 1.8 7.9 6.2 5.8 7.8C3.6 9.4 -0.6 8 -5 5.2C-9.4 2.4 -14 -1.8 -13.2 -5.8C-12.3 -9.8 -6.2 -13.7 -1.7 -13.1C2.8 -12.6 5.5 -7.6 6.8 -2.9Z" stroke="#0e4a86" fill="none" stroke-width="1"></path></g><g transform="translate(713 207)"><path d="M9.2 -2.2C10.5 0.9 9 5.6 6.3 7.2C3.6 8.8 -0.2 7.2 -2 5.3C-3.8 3.4 -3.5 1.2 -2.8 -1.1C-2.2 -3.5 -1.1 -5.9 1.4 -6.3C4 -6.8 7.9 -5.3 9.2 -2.2Z" stroke="#0e4a86" fill="none" stroke-width="1"></path></g><g transform="translate(1706 297)"><path d="M7.3 -1.7C8.5 1.3 7.8 5.5 5.7 6.9C3.5 8.2 0 6.6 -3.2 4.3C-6.4 2 -9.2 -0.9 -8.6 -3.1C-8 -5.3 -4 -6.8 -0.5 -6.6C3.1 -6.5 6.2 -4.7 7.3 -1.7Z" stroke="#0e4a86" fill="none" stroke-width="1"></path></g><g transform="translate(808 790)"><path d="M0.9 -0.3C1.2 0.4 1.2 1.1 0.9 1.4C0.6 1.6 -0.2 1.5 -0.5 1.1C-0.9 0.8 -0.9 0.3 -0.7 -0.3C-0.5 -0.8 -0.3 -1.4 0 -1.4C0.4 -1.5 0.7 -0.9 0.9 -0.3Z" stroke="#0e4a86" fill="none" stroke-width="1"></path></g><g transform="translate(519 592)"><path d="M4.8 -0.9C6 2 6.4 5.7 4.7 7.1C2.9 8.6 -1 7.7 -2.8 6C-4.5 4.2 -4 1.5 -3.1 -0.9C-2.3 -3.3 -1.1 -5.4 0.3 -5.5C1.8 -5.6 3.7 -3.7 4.8 -0.9Z" stroke="#0e4a86" fill="none" stroke-width="1"></path></g><g transform="translate(1232 929)"><path d="M12.4 -5.8C13.1 -2 8.5 1.7 5 3.5C1.5 5.2 -1 5 -4.2 3.3C-7.5 1.5 -11.4 -1.7 -10.9 -5.4C-10.3 -9.1 -5.1 -13.2 0.4 -13.3C5.9 -13.4 11.8 -9.6 12.4 -5.8Z" stroke="#0e4a86" fill="none" stroke-width="1"></path></g><g transform="translate(1849 492)"><path d="M2.8 -0.4C3.5 1.1 3.7 3.3 2.4 4.5C1.1 5.7 -1.7 6 -3.4 4.8C-5 3.6 -5.4 0.8 -4.7 -0.8C-3.9 -2.4 -2 -2.9 -0.4 -2.8C1.1 -2.6 2.1 -1.8 2.8 -0.4Z" stroke="#0e4a86" fill="none" stroke-width="1"></path></g><g transform="translate(460 531)"><path d="M2.4 -0.9C2.6 -0.1 2 0.9 1.1 1.6C0.1 2.3 -1.1 2.8 -1.8 2.3C-2.6 1.8 -2.8 0.4 -2.4 -0.6C-2.1 -1.7 -1 -2.3 0 -2.3C1.1 -2.4 2.2 -1.7 2.4 -0.9Z" stroke="#0e4a86" fill="none" stroke-width="1"></path></g><g transform="translate(1555 347)"><path d="M9.4 -3C11 1.9 10.3 7.5 7.7 9C5.1 10.6 0.6 7.9 -3 5.1C-6.6 2.2 -9.4 -0.9 -8.7 -4.4C-8.1 -8 -4 -12.1 -0.1 -12.1C3.9 -12.1 7.8 -7.9 9.4 -3Z" stroke="#0e4a86" fill="none" stroke-width="1"></path></g><g transform="translate(406 580)"><path d="M1 -0.2C1.2 0.3 1.2 1 0.6 1.6C0 2.2 -1.1 2.7 -1.8 2.3C-2.5 1.8 -2.7 0.4 -2.3 -0.3C-1.9 -1 -0.9 -1.2 -0.3 -1.1C0.4 -1 0.8 -0.7 1 -0.2Z" stroke="#0e4a86" fill="none" stroke-width="1"></path></g><g transform="translate(215 450)"><path d="M7.1 -3.6C7.6 -0.6 5.5 2 2.9 3.8C0.4 5.5 -2.5 6.5 -5.3 5C-8 3.6 -10.6 -0.4 -9.7 -3.9C-8.8 -7.4 -4.4 -10.4 -0.6 -10.2C3.2 -10.1 6.5 -6.6 7.1 -3.6Z" stroke="#0e4a86" fill="none" stroke-width="1"></path></g><g transform="translate(1253 659)"><path d="M5.8 0.3C7.8 4.4 10 10.6 8.2 12C6.4 13.4 0.7 10.2 -2.7 6.9C-6.2 3.6 -7.4 0.4 -6.6 -2C-5.8 -4.5 -2.9 -6.1 -0.5 -5.9C1.9 -5.8 3.8 -3.8 5.8 0.3Z" stroke="#0e4a86" fill="none" stroke-width="1"></path></g><g transform="translate(1627 336)"><path d="M16 -2.5C18.3 1.7 15.9 10.1 11.3 12.8C6.7 15.5 0 12.4 -5.4 8.3C-10.9 4.2 -14.9 -1 -13.8 -3.7C-12.7 -6.3 -6.3 -6.4 0.3 -6.5C6.9 -6.6 13.8 -6.7 16 -2.5Z" stroke="#0e4a86" fill="none" stroke-width="1"></path></g><g transform="translate(717 802)"><path d="M9.6 -3.5C10 -2 6.1 0.6 2.4 3.3C-1.3 6 -4.9 8.9 -5.9 8.2C-6.9 7.4 -5.3 3.1 -3.9 0.1C-2.5 -2.9 -1.2 -4.6 1.7 -5.2C4.6 -5.7 9.3 -5.1 9.6 -3.5Z" stroke="#0e4a86" fill="none" stroke-width="1"></path></g><g transform="translate(742 465)"><path d="M7.1 -0.8C8.5 2 8.5 6.8 5.6 9.3C2.8 11.7 -2.9 11.8 -5.7 9.4C-8.5 7 -8.4 2.2 -6.9 -0.7C-5.5 -3.6 -2.7 -4.6 0.1 -4.6C2.9 -4.6 5.7 -3.7 7.1 -0.8Z" stroke="#0e4a86" fill="none" stroke-width="1"></path></g><g transform="translate(376 803)"><path d="M2.7 -1.1C3.2 0.6 3 2.3 1.7 3.6C0.3 4.8 -2.2 5.7 -4.2 4.6C-6.3 3.4 -7.7 0.2 -6.9 -1.9C-6.1 -4 -3.1 -5 -1 -4.7C1.1 -4.3 2.2 -2.7 2.7 -1.1Z" stroke="#0e4a86" fill="none" stroke-width="1"></path></g><g transform="translate(1191 341)"><path d="M10.7 -2.9C11.9 0.3 9.6 5.2 6.6 6.8C3.7 8.4 0 6.7 -2 4.8C-4 2.9 -4.3 0.7 -3.7 -1.6C-3.1 -3.9 -1.5 -6.3 1.6 -6.9C4.7 -7.4 9.5 -6 10.7 -2.9Z" stroke="#0e4a86" fill="none" stroke-width="1"></path></g><g transform="translate(229 708)"><path d="M4.9 -2.6C5.5 0.1 4.4 2.4 2.4 4.1C0.3 5.9 -2.8 7 -5.6 5.5C-8.4 4 -10.8 -0.1 -9.8 -3.4C-8.8 -6.7 -4.4 -9.2 -1.1 -8.8C2.2 -8.5 4.4 -5.3 4.9 -2.6Z" stroke="#0e4a86" fill="none" stroke-width="1"></path></g><g transform="translate(152 809)"><path d="M1.1 -0.5C1.2 0.1 1 0.7 0.6 1C0.2 1.4 -0.5 1.6 -1.1 1.2C-1.6 0.9 -2 0.1 -1.8 -0.6C-1.6 -1.3 -0.8 -1.7 -0.2 -1.7C0.5 -1.6 0.9 -1 1.1 -0.5Z" stroke="#0e4a86" fill="none" stroke-width="1"></path></g><g transform="translate(1894 117)"><path d="M6.4 -0.6C8.3 3.5 9.6 9.2 7.8 10.5C6 11.7 1.2 8.4 -3.9 4.8C-9.1 1.3 -14.4 -2.6 -13.8 -5C-13.2 -7.5 -6.6 -8.6 -2.1 -7.9C2.3 -7.2 4.6 -4.7 6.4 -0.6Z" stroke="#0e4a86" fill="none" stroke-width="1"></path></g><g transform="translate(1506 161)"><path d="M5.2 -2.5C5.8 0.1 4.7 2.4 2.5 4.2C0.3 6 -3 7.3 -4.3 6.2C-5.6 5.2 -5 1.9 -4 -1.4C-2.9 -4.6 -1.5 -7.8 0.4 -7.9C2.3 -8.1 4.7 -5.2 5.2 -2.5Z" stroke="#0e4a86" fill="none" stroke-width="1"></path></g><g transform="translate(289 506)"><path d="M8.4 -2C10.2 2.8 10.5 8.9 6.7 12.4C2.9 15.9 -5 16.8 -8.3 13.8C-11.6 10.8 -10.4 3.9 -8.3 -1.3C-6.1 -6.6 -3.1 -10.2 0.1 -10.2C3.3 -10.3 6.6 -6.7 8.4 -2Z" stroke="#0e4a86" fill="none" stroke-width="1"></path></g><g transform="translate(71 343)"><path d="M3.6 -1C4.4 1.2 4.6 3.9 3.3 4.9C1.9 6 -0.8 5.5 -2.7 4C-4.6 2.6 -5.7 0.2 -5.1 -1.8C-4.5 -3.8 -2.2 -5.4 -0.4 -5.3C1.4 -5.2 2.9 -3.3 3.6 -1Z" stroke="#0e4a86" fill="none" stroke-width="1"></path></g><g transform="translate(167 364)"><path d="M1.4 -0.6C1.6 0.2 1.4 1 0.7 1.7C-0.1 2.5 -1.5 3.2 -2.6 2.6C-3.7 2.1 -4.6 0.1 -4.1 -1.1C-3.6 -2.3 -1.8 -2.8 -0.6 -2.6C0.6 -2.4 1.2 -1.5 1.4 -0.6Z" stroke="#0e4a86" fill="none" stroke-width="1"></path></g><g transform="translate(1101 663)"><path d="M3.5 -1.1C3.9 0.1 3.1 1.7 1.8 2.7C0.5 3.8 -1.5 4.2 -2.8 3.3C-4.2 2.5 -5 0.3 -4.4 -1.1C-3.9 -2.6 -1.9 -3.3 -0.2 -3.2C1.5 -3.1 3.1 -2.3 3.5 -1.1Z" stroke="#0e4a86" fill="none" stroke-width="1"></path></g><g transform="translate(1527 1058)"><path d="M0.9 -0.5C1 0.2 1 0.7 0.6 1C0.2 1.4 -0.5 1.5 -1.2 1.1C-1.9 0.7 -2.7 -0.2 -2.5 -0.9C-2.3 -1.6 -1.1 -2.2 -0.4 -2C0.4 -1.9 0.7 -1.1 0.9 -0.5Z" stroke="#0e4a86" fill="none" stroke-width="1"></path></g><g transform="translate(1665 46)"><path d="M3.3 -0.9C3.7 0.1 3 1.7 1.8 2.5C0.7 3.3 -1 3.5 -1.7 2.9C-2.3 2.3 -2 0.9 -1.5 -0.3C-1.1 -1.4 -0.6 -2.3 0.4 -2.4C1.5 -2.6 2.9 -2 3.3 -0.9Z" stroke="#0e4a86" fill="none" stroke-width="1"></path></g><g transform="translate(928 841)"><path d="M5.8 -1.9C6.3 -0.1 4.9 2.3 2.7 4C0.5 5.6 -2.5 6.6 -4.2 5.4C-5.8 4.3 -6.2 1.1 -5.3 -1.2C-4.4 -3.5 -2.2 -4.8 0.2 -4.9C2.6 -5 5.2 -3.7 5.8 -1.9Z" stroke="#0e4a86" fill="none" stroke-width="1"></path></g><g transform="translate(1218 390)"><path d="M5.9 -2C6.6 0.3 5.5 3.1 3.3 4.6C1.2 6.2 -1.9 6.6 -3.6 5.3C-5.2 4 -5.5 1.1 -4.6 -1.4C-3.8 -3.8 -1.9 -5.7 0.4 -5.9C2.6 -6 5.2 -4.3 5.9 -2Z" stroke="#0e4a86" fill="none" stroke-width="1"></path></g><g transform="translate(464 172)"><path d="M3.6 -1.4C4 0.1 3.3 1.8 2 2.8C0.6 3.8 -1.2 4 -2.3 3.3C-3.3 2.5 -3.4 0.7 -2.9 -1C-2.4 -2.6 -1.2 -4.1 0.2 -4.1C1.6 -4.2 3.2 -2.9 3.6 -1.4Z" stroke="#0e4a86" fill="none" stroke-width="1"></path></g><g transform="translate(1007 880)"><path d="M4.6 -1.4C5.4 0.9 5.1 3.8 3.6 4.8C2.2 5.8 -0.4 5 -2.9 3.3C-5.4 1.6 -7.9 -0.9 -7.4 -2.8C-6.9 -4.7 -3.4 -6 -0.8 -5.8C1.9 -5.6 3.9 -3.7 4.6 -1.4Z" stroke="#0e4a86" fill="none" stroke-width="1"></path></g><g transform="translate(1176 472)"><path d="M13 -5.3C14.5 0.4 11.8 6.4 8.1 8.5C4.5 10.5 -0.1 8.5 -5.2 5.2C-10.3 2 -16 -2.5 -15.2 -7.3C-14.4 -12 -7.2 -17.1 -0.7 -16.8C5.7 -16.6 11.5 -11.1 13 -5.3Z" stroke="#0e4a86" fill="none" stroke-width="1"></path></g><g transform="translate(928 931)"><path d="M5.5 -2.7C6.5 1.2 6.2 4.7 3.3 7.4C0.5 10.1 -4.8 12.1 -6.8 10.4C-8.8 8.7 -7.3 3.4 -5.6 -1.5C-3.9 -6.4 -2 -10.8 0.1 -10.9C2.3 -10.9 4.5 -6.6 5.5 -2.7Z" stroke="#0e4a86" fill="none" stroke-width="1"></path></g><g transform="translate(332 761)"><path d="M6.8 -1.8C7.8 0.9 6.9 4.6 4.6 6.3C2.3 7.9 -1.5 7.6 -3.6 5.8C-5.7 4.1 -6.1 1 -5.3 -1.6C-4.4 -4.1 -2.2 -6 0.3 -6.1C2.9 -6.2 5.8 -4.5 6.8 -1.8Z" stroke="#0e4a86" fill="none" stroke-width="1"></path></g><g transform="translate(114 932)"><path d="M5.8 -1.1C7.4 2.9 8.3 7.8 5.8 10.2C3.3 12.6 -2.8 12.3 -6.1 9.6C-9.5 6.9 -10.2 1.7 -8.8 -2.2C-7.3 -6.2 -3.6 -8.8 -0.8 -8.5C2.1 -8.3 4.3 -5.2 5.8 -1.1Z" stroke="#0e4a86" fill="none" stroke-width="1"></path></g><g transform="translate(1830 284)"><path d="M5.8 -1.9C6.5 0.3 5.4 3.1 3.1 5C0.8 6.8 -2.7 7.7 -5.3 6.1C-7.9 4.5 -9.5 0.4 -8.5 -2.2C-7.5 -4.9 -3.7 -6.1 -0.6 -5.9C2.5 -5.7 5.1 -4.1 5.8 -1.9Z" stroke="#0e4a86" fill="none" stroke-width="1"></path></g><g transform="translate(1410 240)"><path d="M8.8 -2.7C9.9 0.6 8.3 4.9 5.7 6.4C3.1 7.9 -0.4 6.7 -3.4 4.6C-6.3 2.5 -8.7 -0.6 -8 -3.2C-7.4 -5.8 -3.7 -8 0.1 -8C3.8 -8 7.7 -5.9 8.8 -2.7Z" stroke="#0e4a86" fill="none" stroke-width="1"></path></g><g transform="translate(1435 674)"><path d="M1.8 -0.9C2.1 0.3 1.9 1.4 1.4 1.7C0.9 2 0 1.6 -0.8 1.1C-1.5 0.5 -2.2 -0.2 -2 -1.2C-1.9 -2.2 -0.9 -3.5 -0.1 -3.5C0.7 -3.5 1.5 -2.1 1.8 -0.9Z" stroke="#0e4a86" fill="none" stroke-width="1"></path></g><g transform="translate(1349 207)"><path d="M3.9 -0.8C4.7 1.2 4.7 3.9 2.8 5.7C1 7.5 -2.9 8.3 -5.4 6.7C-8 5 -9.3 0.8 -8.2 -1.7C-7.1 -4.1 -3.5 -4.8 -1 -4.4C1.5 -4.1 3.1 -2.8 3.9 -0.8Z" stroke="#0e4a86" fill="none" stroke-width="1"></path></g><g transform="translate(1082 377)"><path d="M5.8 -2.9C6.2 -0.7 4.2 1.2 2.1 2.7C0 4.2 -2.3 5.2 -3.3 4.5C-4.4 3.8 -4.2 1.2 -3.4 -1.5C-2.7 -4.2 -1.3 -7 0.7 -7.3C2.7 -7.5 5.4 -5.1 5.8 -2.9Z" stroke="#0e4a86" fill="none" stroke-width="1"></path></g><g transform="translate(1023 186)"><path d="M12.3 -4C13.5 -0.4 10.3 4.7 5.8 7.8C1.4 11 -4.2 12.2 -7.5 9.9C-10.8 7.6 -11.8 1.7 -10.2 -2.5C-8.5 -6.7 -4.3 -9.3 0.7 -9.6C5.6 -9.8 11.1 -7.6 12.3 -4Z" stroke="#0e4a86" fill="none" stroke-width="1"></path></g><g transform="translate(1568 877)"><path d="M7.6 -2.5C8.4 0 6.6 3.4 3.9 5.3C1.2 7.3 -2.5 7.9 -4.3 6.4C-6.1 5 -6.1 1.5 -5.1 -1.3C-4 -4.2 -2 -6.4 0.7 -6.6C3.4 -6.8 6.8 -5.1 7.6 -2.5Z" stroke="#0e4a86" fill="none" stroke-width="1"></path></g><g transform="translate(864 15)"><path d="M4.8 -1.2C5.5 0.5 4.8 3.1 3.1 4.3C1.5 5.5 -1.2 5.4 -3.8 3.8C-6.5 2.2 -9.2 -0.8 -8.6 -2.5C-7.9 -4.1 -4 -4.4 -1 -4.1C2.1 -3.8 4.1 -2.9 4.8 -1.2Z" stroke="#0e4a86" fill="none" stroke-width="1"></path></g><g transform="translate(487 229)"><path d="M7.7 -1.8C8.8 0.8 7.6 4.8 5.6 5.7C3.7 6.7 0.9 4.6 -1.2 2.7C-3.4 0.9 -5.1 -0.6 -4.8 -2.2C-4.5 -3.7 -2.2 -5.2 0.6 -5.4C3.3 -5.6 6.7 -4.4 7.7 -1.8Z" stroke="#0e4a86" fill="none" stroke-width="1"></path></g><g transform="translate(634 984)"><path d="M12.5 -3.6C14.3 1.3 12.3 7.8 7.8 11.2C3.3 14.6 -3.9 14.9 -7.1 12C-10.3 9.1 -9.5 3.1 -7.7 -1.9C-5.9 -7 -2.9 -11.1 1.2 -11.5C5.4 -11.9 10.8 -8.6 12.5 -3.6Z" stroke="#0e4a86" fill="none" stroke-width="1"></path></g><g transform="translate(773 311)"><path d="M3.8 -0.9C4.5 0.9 4.4 3.3 3.3 4C2.2 4.6 0.3 3.5 -2.1 2C-4.5 0.5 -7.3 -1.4 -7 -2.7C-6.7 -4 -3.4 -4.6 -0.9 -4.4C1.6 -4.1 3.1 -2.8 3.8 -0.9Z" stroke="#0e4a86" fill="none" stroke-width="1"></path></g><g transform="translate(1292 80)"><path d="M15.8 -5.9C17.2 -0.8 12.8 5.4 7.2 9.4C1.6 13.3 -5.3 15.1 -8.3 12.6C-11.3 10.2 -10.4 3.5 -8.4 -2.5C-6.3 -8.5 -3.2 -13.8 2 -14.5C7.2 -15.1 14.4 -11.1 15.8 -5.9Z" stroke="#0e4a86" fill="none" stroke-width="1"></path></g><g transform="translate(74 685)"><path d="M3 -0.9C3.3 -0.1 2.5 1.2 1.5 1.9C0.5 2.6 -0.7 2.7 -2.4 1.8C-4.1 0.9 -6.2 -0.9 -5.9 -1.8C-5.6 -2.7 -2.8 -2.7 -0.7 -2.5C1.4 -2.2 2.7 -1.8 3 -0.9Z" stroke="#0e4a86" fill="none" stroke-width="1"></path></g><g transform="translate(441 359)"><path d="M4.1 -1.5C5.1 1.9 5.7 5.2 4.1 6.6C2.6 7.9 -1.1 7.2 -3.2 5.4C-5.4 3.6 -6 0.7 -5.2 -2.3C-4.5 -5.3 -2.2 -8.5 -0.3 -8.4C1.5 -8.2 3.1 -4.9 4.1 -1.5Z" stroke="#0e4a86" fill="none" stroke-width="1"></path></g><g transform="translate(805 690)"><path d="M7.8 -3.2C8.4 -0.7 6 2.1 3.1 4.2C0.2 6.3 -3.2 7.7 -4.7 6.6C-6.1 5.5 -5.7 1.9 -4.6 -1.3C-3.5 -4.5 -1.7 -7.4 0.9 -7.7C3.6 -8 7.2 -5.7 7.8 -3.2Z" stroke="#0e4a86" fill="none" stroke-width="1"></path></g><g transform="translate(532 309)"><path d="M3.8 -0.8C4.5 1.1 4.5 3.6 2.8 5.2C1.1 6.7 -2.3 7.3 -4.3 5.9C-6.3 4.4 -6.9 1 -5.9 -1.1C-5 -3.2 -2.5 -4.1 -0.5 -3.9C1.5 -3.7 3 -2.6 3.8 -0.8Z" stroke="#0e4a86" fill="none" stroke-width="1"></path></g><g transform="translate(1543 125)"><path d="M10 -3.5C11.4 1.1 9.9 6.4 6.5 8.8C3.1 11.3 -2.2 10.9 -5.1 8.4C-8 6 -8.4 1.6 -7.1 -2.9C-5.9 -7.3 -2.9 -11.7 0.7 -11.9C4.3 -12.2 8.6 -8.2 10 -3.5Z" stroke="#0e4a86" fill="none" stroke-width="1"></path></g><g transform="translate(779 102)"><path d="M9.4 -3.3C10 -1.2 6.8 1.8 3.6 3.9C0.4 5.9 -2.7 7 -4.9 5.6C-7.1 4.3 -8.3 0.6 -7.3 -2C-6.4 -4.6 -3.2 -6 0.6 -6.2C4.4 -6.4 8.8 -5.4 9.4 -3.3Z" stroke="#0e4a86" fill="none" stroke-width="1"></path></g><g transform="translate(917 332)"><path d="M5.3 -0.9C5.9 0.3 5 2.9 3.2 4C1.5 5.2 -0.9 4.9 -2.1 3.9C-3.3 2.8 -3.2 0.9 -2.6 -0.2C-2.1 -1.4 -1 -1.7 0.6 -2C2.3 -2.2 4.6 -2.2 5.3 -0.9Z" stroke="#0e4a86" fill="none" stroke-width="1"></path></g><g transform="translate(895 653)"><path d="M12.6 -4.1C14.4 1.4 12.5 8 8.7 10.3C5 12.7 -0.7 10.7 -6.2 7.1C-11.7 3.4 -17 -1.9 -15.9 -6.4C-14.9 -10.9 -7.4 -14.5 -1 -14.1C5.4 -13.8 10.8 -9.5 12.6 -4.1Z" stroke="#0e4a86" fill="none" stroke-width="1"></path></g><g transform="translate(1799 852)"><path d="M10.6 -4.6C12.3 1.7 11.2 7.7 6.7 11.6C2.2 15.4 -5.6 17 -9.1 14.1C-12.5 11.2 -11.6 3.9 -9.4 -3.2C-7.1 -10.2 -3.6 -16.9 0.5 -17.1C4.5 -17.2 9 -10.8 10.6 -4.6Z" stroke="#0e4a86" fill="none" stroke-width="1"></path></g><g transform="translate(19 115)"><path d="M11.5 -3.6C13 0.6 10.7 6.1 6.7 9C2.6 12 -3.2 12.2 -6.6 9.6C-10 7 -11 1.6 -9.5 -2.8C-7.9 -7.2 -4 -10.4 0.5 -10.6C5.1 -10.8 10.1 -7.9 11.5 -3.6Z" stroke="#0e4a86" fill="none" stroke-width="1"></path></g><g transform="translate(1287 232)"><path d="M9.4 -2.7C11 2.1 10.5 7.9 7.3 10.4C4 12.8 -1.9 11.8 -5.3 9C-8.8 6.1 -9.6 1.4 -8.3 -3C-7 -7.3 -3.5 -11.2 0.2 -11.2C3.9 -11.3 7.7 -7.5 9.4 -2.7Z" stroke="#0e4a86" fill="none" stroke-width="1"></path></g><g transform="translate(741 20)"><path d="M6 -2.1C7.3 2 7.6 6.4 4.8 9C2 11.6 -3.9 12.5 -7.7 9.9C-11.5 7.3 -13.2 1.2 -11.6 -3.4C-9.9 -8 -5 -11.2 -1.3 -10.8C2.4 -10.3 4.7 -6.3 6 -2.1Z" stroke="#0e4a86" fill="none" stroke-width="1"></path></g><g transform="translate(60 244)"><path d="M5.5 -2C6 -0.4 4.4 1.8 2.1 3.6C-0.3 5.5 -3.4 7.2 -4.5 6.4C-5.6 5.5 -4.7 2.1 -3.6 -0.3C-2.6 -2.8 -1.3 -4.4 0.6 -4.6C2.5 -4.8 5.1 -3.6 5.5 -2Z" stroke="#0e4a86" fill="none" stroke-width="1"></path></g><g transform="translate(1695 837)"><path d="M5.4 -1.7C6.2 0.7 5.5 3.6 3.6 5C1.8 6.3 -1.2 6.1 -2.5 4.8C-3.8 3.6 -3.4 1.3 -2.7 -0.9C-2 -3.2 -1 -5.3 0.7 -5.6C2.3 -5.8 4.6 -4 5.4 -1.7Z" stroke="#0e4a86" fill="none" stroke-width="1"></path></g><g transform="translate(1577 734)"><path d="M4.5 -1.2C5 -0.1 3.8 1.8 2.2 2.9C0.6 4.1 -1.5 4.5 -3.1 3.5C-4.8 2.6 -5.9 0.1 -5.3 -1.2C-4.7 -2.5 -2.4 -2.7 -0.2 -2.7C2 -2.6 4.1 -2.3 4.5 -1.2Z" stroke="#0e4a86" fill="none" stroke-width="1"></path></g><g transform="translate(232 384)"><path d="M13.2 -4.1C14.4 -0.8 10.6 4.3 5.7 8C0.8 11.6 -5.4 13.7 -9.3 11.2C-13.3 8.7 -15.1 1.6 -13.2 -2.8C-11.3 -7.2 -5.7 -8.8 0.2 -8.9C6 -8.9 12.1 -7.4 13.2 -4.1Z" stroke="#0e4a86" fill="none" stroke-width="1"></path></g><g transform="translate(550 527)"><path d="M11.6 -4.5C12.3 -1.6 8.3 2.2 4.1 5.1C-0.1 8.1 -4.6 10.2 -6.2 9C-7.7 7.7 -6.4 3 -4.9 -1C-3.4 -5 -1.7 -8.4 1.9 -9C5.4 -9.6 10.9 -7.5 11.6 -4.5Z" stroke="#0e4a86" fill="none" stroke-width="1"></path></g><g transform="translate(917 238)"><path d="M3.4 -1.2C3.9 0.3 3.3 2 2.4 2.5C1.4 3 0.1 2.3 -0.8 1.6C-1.6 0.8 -2.1 0 -1.9 -1.1C-1.7 -2.2 -0.9 -3.6 0.3 -3.7C1.5 -3.8 3 -2.6 3.4 -1.2Z" stroke="#0e4a86" fill="none" stroke-width="1"></path></g><g transform="translate(1532 625)"><path d="M12.9 -4.6C13.6 -1.9 9 2.1 5.4 4C1.7 5.8 -1.1 5.6 -3.3 4C-5.6 2.5 -7.4 -0.2 -6.8 -2.8C-6.1 -5.4 -3.1 -7.7 1.5 -8.2C6.1 -8.7 12.1 -7.3 12.9 -4.6Z" stroke="#0e4a86" fill="none" stroke-width="1"></path></g><g transform="translate(916 45)"><path d="M1.5 -0.7C1.6 -0.3 1 0.2 0.4 0.7C-0.3 1.2 -1 1.8 -1.3 1.6C-1.6 1.5 -1.4 0.5 -1.1 -0.2C-0.8 -0.8 -0.4 -1.3 0.2 -1.4C0.7 -1.4 1.4 -1 1.5 -0.7Z" stroke="#0e4a86" fill="none" stroke-width="1"></path></g><g transform="translate(973 41)"><path d="M14 -3.6C16.1 1.7 14.1 9.2 9 13.1C3.9 16.9 -4.3 17.1 -7.9 13.8C-11.5 10.5 -10.4 3.8 -8.3 -1.6C-6.2 -6.9 -3.1 -10.8 1.4 -11.3C6 -11.8 12 -8.8 14 -3.6Z" stroke="#0e4a86" fill="none" stroke-width="1"></path></g><g transform="translate(1854 721)"><path d="M6.6 -2C7.6 0.7 6.5 4.2 4.6 5.4C2.6 6.6 -0.3 5.5 -2.6 3.8C-4.9 2 -6.7 -0.3 -6.1 -2.5C-5.6 -4.7 -2.8 -6.7 0 -6.7C2.9 -6.7 5.7 -4.7 6.6 -2Z" stroke="#0e4a86" fill="none" stroke-width="1"></path></g><g transform="translate(67 1043)"><path d="M3.8 -1.2C5 2.5 6.2 6.3 4.8 7.4C3.5 8.5 -0.2 7 -2.7 5C-5.1 2.9 -6.2 0.3 -5.5 -2.7C-4.9 -5.7 -2.4 -9.1 -0.6 -8.9C1.3 -8.7 2.6 -5 3.8 -1.2Z" stroke="#0e4a86" fill="none" stroke-width="1"></path></g><g transform="translate(527 818)"><path d="M8.3 -1.7C9.5 1 8.4 5.5 5 8.2C1.7 10.9 -3.8 11.9 -7 9.6C-10.1 7.3 -11 1.7 -9.4 -1.4C-7.9 -4.6 -3.9 -5.4 -0.2 -5.3C3.5 -5.3 7.1 -4.4 8.3 -1.7Z" stroke="#0e4a86" fill="none" stroke-width="1"></path></g><g transform="translate(629 139)"><path d="M6.2 -0.7C7.8 3.2 9 8.5 6.8 10.4C4.6 12.2 -0.9 10.5 -3.6 7.8C-6.4 5.2 -6.4 1.6 -5.3 -1.5C-4.2 -4.6 -2.1 -7.1 0.1 -7.1C2.2 -7.2 4.5 -4.7 6.2 -0.7Z" stroke="#0e4a86" fill="none" stroke-width="1"></path></g><g transform="translate(796 454)"><path d="M5.7 -1.5C6.8 1.8 6.9 5.7 5.2 7C3.4 8.3 -0.3 6.9 -2.3 5C-4.3 3.1 -4.7 0.7 -4 -1.9C-3.4 -4.5 -1.7 -7.3 0.3 -7.4C2.2 -7.5 4.5 -4.8 5.7 -1.5Z" stroke="#0e4a86" fill="none" stroke-width="1"></path></g><g transform="translate(112 130)"><path d="M5.2 -1.9C5.7 -0.4 4.1 1.6 2.7 2.3C1.3 3 0 2.4 -1.3 1.5C-2.5 0.6 -3.7 -0.5 -3.5 -1.7C-3.3 -2.9 -1.7 -4.2 0.4 -4.3C2.4 -4.4 4.8 -3.4 5.2 -1.9Z" stroke="#0e4a86" fill="none" stroke-width="1"></path></g><g transform="translate(1351 134)"><path d="M1.9 -0.4C2.4 1.1 2.9 2.9 2.1 3.6C1.3 4.3 -0.7 4 -1.6 3.1C-2.5 2.3 -2.4 0.8 -1.9 -0.6C-1.5 -1.9 -0.7 -3.2 0 -3.1C0.6 -3.1 1.3 -1.9 1.9 -0.4Z" stroke="#0e4a86" fill="none" stroke-width="1"></path></g><g transform="translate(1284 523)"><path d="M6.1 -1.1C7.7 3 8.7 8.1 5.9 10.8C3.1 13.4 -3.4 13.6 -8.1 10.4C-12.8 7.2 -15.7 0.6 -14 -3.6C-12.3 -7.8 -6.2 -9.6 -2 -9C2.2 -8.4 4.4 -5.3 6.1 -1.1Z" stroke="#0e4a86" fill="none" stroke-width="1"></path></g><g transform="translate(1268 430)"><path d="M7.6 -2.6C8.3 -0.5 6 2.3 3.7 3.7C1.3 5.1 -1.2 5.1 -2.8 3.9C-4.4 2.7 -5.1 0.4 -4.5 -1.6C-3.9 -3.6 -2 -5.4 0.8 -5.6C3.5 -5.9 7 -4.7 7.6 -2.6Z" stroke="#0e4a86" fill="none" stroke-width="1"></path></g><g transform="translate(1164 598)"><path d="M4.3 -1.5C4.5 -0.9 2.8 0.3 1.5 1C0.2 1.6 -0.6 1.8 -1.1 1.5C-1.5 1.1 -1.6 0.3 -1.4 -0.4C-1.1 -1 -0.6 -1.5 0.8 -1.8C2.1 -2 4.2 -2 4.3 -1.5Z" stroke="#0e4a86" fill="none" stroke-width="1"></path></g><g transform="translate(1725 92)"><path d="M2.1 -0.7C2.4 0.2 2 1.2 1.3 1.7C0.5 2.3 -0.6 2.3 -1.3 1.7C-2 1.2 -2.3 0.2 -2 -0.6C-1.7 -1.5 -0.9 -2.1 0 -2.1C0.9 -2.1 1.8 -1.5 2.1 -0.7Z" stroke="#0e4a86" fill="none" stroke-width="1"></path></g><g transform="translate(1108 60)"><path d="M4.4 -0.8C5.1 0.6 4.5 3.1 3.1 4.2C1.6 5.3 -0.9 5 -2.5 3.7C-4.1 2.5 -4.8 0.4 -4.2 -1C-3.7 -2.3 -1.8 -2.8 0 -2.8C1.9 -2.8 3.7 -2.3 4.4 -0.8Z" stroke="#0e4a86" fill="none" stroke-width="1"></path></g><g transform="translate(27 621)"><path d="M1.1 -0.6C1.4 0.3 1.3 1 0.8 1.5C0.3 2 -0.8 2.3 -1.7 1.8C-2.6 1.2 -3.3 0 -3 -1.1C-2.7 -2.2 -1.4 -3 -0.4 -2.8C0.5 -2.7 0.9 -1.6 1.1 -0.6Z" stroke="#0e4a86" fill="none" stroke-width="1"></path></g><g transform="translate(294 251)"><path d="M5.9 -3.2C6.5 -0.1 5.1 2.4 3 3.8C1 5.3 -1.7 5.6 -4.3 4.1C-7 2.6 -9.7 -0.7 -9 -4C-8.3 -7.2 -4.1 -10.5 -0.7 -10.2C2.7 -10 5.3 -6.3 5.9 -3.2Z" stroke="#0e4a86" fill="none" stroke-width="1"></path></g><g transform="translate(535 954)"><path d="M7 -1.9C8.4 1.9 8.3 6.6 5.4 9.2C2.4 11.7 -3.3 12.1 -7.4 9.4C-11.5 6.6 -13.9 0.7 -12.4 -3.3C-10.9 -7.3 -5.4 -9.4 -1.3 -9C2.8 -8.5 5.7 -5.7 7 -1.9Z" stroke="#0e4a86" fill="none" stroke-width="1"></path></g><g transform="translate(451 752)"><path d="M10.1 -3C11.8 2 11.1 8.2 8 10.2C4.9 12.3 -0.6 10.3 -3.2 7.6C-5.8 4.9 -5.7 1.6 -4.7 -2.4C-3.7 -6.5 -1.8 -11.1 1.2 -11.5C4.2 -11.9 8.3 -8 10.1 -3Z" stroke="#0e4a86" fill="none" stroke-width="1"></path></g><g transform="translate(1566 45)"><path d="M8.6 -2.6C9.6 0.4 7.9 4.6 5.5 6C3 7.4 -0.3 6.2 -2.7 4.3C-5.1 2.4 -6.6 -0.1 -6 -2.6C-5.4 -5 -2.7 -7.4 0.5 -7.5C3.8 -7.7 7.5 -5.7 8.6 -2.6Z" stroke="#0e4a86" fill="none" stroke-width="1"></path></g><g transform="translate(1128 216)"><path d="M3.1 -1.5C3.7 0.7 3.5 2.7 2.1 3.9C0.7 5.1 -1.9 5.6 -3.9 4.4C-5.9 3.1 -7.4 0.1 -6.7 -2.4C-5.9 -4.8 -3 -6.8 -0.8 -6.5C1.3 -6.3 2.5 -3.7 3.1 -1.5Z" stroke="#0e4a86" fill="none" stroke-width="1"></path></g><g transform="translate(412 964)"><path d="M7.4 -1.3C8.6 1.3 7.9 5.6 5.2 7.8C2.4 9.9 -2.4 9.9 -4.4 8C-6.5 6 -5.7 2.2 -4.5 -0.4C-3.3 -3 -1.7 -4.4 0.7 -4.7C3.1 -4.9 6.2 -4 7.4 -1.3Z" stroke="#0e4a86" fill="none" stroke-width="1"></path></g><g transform="translate(91 876)"><path d="M7.2 -0.6C8.9 2.9 9.5 8.4 7.5 9.9C5.4 11.3 0.5 8.6 -2.4 5.9C-5.3 3.1 -6.3 0.4 -5.6 -1.7C-4.9 -3.8 -2.4 -5.1 0.2 -5.2C2.8 -5.2 5.5 -4 7.2 -0.6Z" stroke="#0e4a86" fill="none" stroke-width="1"></path></g><g transform="translate(1630 594)"><path d="M6.4 -4.1C7 -0.1 5.4 2.6 2.5 5.2C-0.5 7.8 -4.9 10.3 -7.1 8.9C-9.3 7.5 -9.4 2.2 -7.8 -3C-6.3 -8.2 -3.1 -13.4 -0.1 -13.3C2.9 -13.3 5.7 -8 6.4 -4.1Z" stroke="#0e4a86" fill="none" stroke-width="1"></path></g><g transform="translate(836 1070)"><path d="M6.4 -2.3C7.1 0 5.6 2.8 3.4 4.3C1.2 5.8 -1.7 6.1 -3.9 4.6C-6 3.2 -7.5 0.1 -6.7 -2.3C-6 -4.7 -3 -6.4 -0.1 -6.4C2.9 -6.4 5.7 -4.6 6.4 -2.3Z" stroke="#0e4a86" fill="none" stroke-width="1"></path></g><g transform="translate(530 192)"><path d="M4.2 -1.1C4.8 0.4 4.1 2.5 2.5 3.6C1 4.7 -1.3 4.8 -2.4 3.9C-3.5 2.9 -3.3 1 -2.7 -0.5C-2.1 -2 -1.1 -3 0.4 -3.1C1.8 -3.3 3.6 -2.5 4.2 -1.1Z" stroke="#0e4a86" fill="none" stroke-width="1"></path></g><g transform="translate(1073 714)"><path d="M3.5 -3.2C4 0.4 3.5 2.3 1.6 4.2C-0.4 6.1 -3.8 8 -6.8 6.5C-9.9 4.9 -12.6 0 -11.4 -4.6C-10.2 -9.2 -5.1 -13.4 -1.8 -12.8C1.5 -12.2 3 -6.8 3.5 -3.2Z" stroke="#0e4a86" fill="none" stroke-width="1"></path></g><g transform="translate(937 1058)"><path d="M6.3 -1.7C7.1 0.5 6.1 3.7 4.1 4.9C2.2 6.1 -0.6 5.4 -2.6 3.8C-4.6 2.3 -5.8 0 -5.2 -1.8C-4.7 -3.5 -2.3 -4.8 0.2 -4.9C2.7 -4.9 5.5 -3.8 6.3 -1.7Z" stroke="#0e4a86" fill="none" stroke-width="1"></path></g><g transform="translate(1854 648)"><path d="M4 -1C4.5 0.4 3.9 2.4 2.9 2.9C1.8 3.5 0.4 2.5 -0.6 1.6C-1.7 0.7 -2.2 -0.1 -2.1 -1C-1.9 -1.8 -0.9 -2.6 0.4 -2.8C1.7 -2.9 3.5 -2.3 4 -1Z" stroke="#0e4a86" fill="none" stroke-width="1"></path></g><g transform="translate(1906 605)"><path d="M13.9 -3.2C15.8 1.6 13.8 8.9 10.2 10.7C6.7 12.5 1.5 8.8 -3 5.2C-7.6 1.7 -11.4 -1.6 -10.8 -4.5C-10.2 -7.4 -5.1 -9.8 0.4 -9.9C5.9 -10 11.9 -7.9 13.9 -3.2Z" stroke="#0e4a86" fill="none" stroke-width="1"></path></g><g transform="translate(680 1012)"><path d="M12.4 -2.3C14.1 1.4 12.3 7.9 8.1 10.9C3.9 13.8 -2.6 13.2 -5.8 10.3C-9 7.5 -8.8 2.3 -7.3 -1C-5.8 -4.4 -2.9 -5.9 1.2 -6.3C5.3 -6.7 10.6 -6 12.4 -2.3Z" stroke="#0e4a86" fill="none" stroke-width="1"></path></g><g transform="translate(540 406)"><path d="M9.2 -3.4C10.1 -0.2 7.7 3.6 5 5.3C2.2 6.9 -0.9 6.3 -3.5 4.5C-6.1 2.7 -8.2 -0.3 -7.5 -3.2C-6.8 -6.1 -3.4 -8.8 0.4 -8.9C4.1 -9.1 8.3 -6.5 9.2 -3.4Z" stroke="#0e4a86" fill="none" stroke-width="1"></path></g><g transform="translate(1070 990)"><path d="M0.9 0C1.1 0.5 1.3 1.2 0.9 1.6C0.5 1.9 -0.4 1.9 -0.8 1.5C-1.3 1.1 -1.2 0.3 -1 -0.1C-0.8 -0.5 -0.4 -0.7 0 -0.7C0.3 -0.7 0.6 -0.5 0.9 0Z" stroke="#0e4a86" fill="none" stroke-width="1"></path></g><g transform="translate(224 186)"><path d="M3.8 -2C4.2 0 3.3 1.6 1.9 2.6C0.6 3.5 -1.2 3.8 -2.1 3.1C-3.1 2.4 -3.2 0.7 -2.7 -1.4C-2.2 -3.5 -1.1 -5.9 0.3 -6C1.7 -6.1 3.4 -3.9 3.8 -2Z" stroke="#0e4a86" fill="none" stroke-width="1"></path></g><g transform="translate(1682 657)"><path d="M6.8 -2.7C7.3 -0.7 5.1 1.6 2.6 3.3C0.2 5.1 -2.6 6.2 -3.6 5.3C-4.6 4.5 -4 1.7 -3.1 -0.8C-2.2 -3.4 -1.1 -5.7 1 -6C3.2 -6.4 6.4 -4.7 6.8 -2.7Z" stroke="#0e4a86" fill="none" stroke-width="1"></path></g><g transform="translate(1188 687)"><path d="M8 -0.8C10 3.6 11.1 10.2 8.7 11.8C6.4 13.5 0.6 10.3 -4.3 6.6C-9.3 2.8 -13.5 -1.5 -12.6 -4.3C-11.7 -7.1 -5.9 -8.4 -1.5 -7.9C3 -7.5 5.9 -5.2 8 -0.8Z" stroke="#0e4a86" fill="none" stroke-width="1"></path></g><g transform="translate(1351 1021)"><path d="M2.2 -0.4C2.6 0.4 2.3 1.6 1.7 2.1C1 2.5 -0.1 2.1 -0.8 1.5C-1.4 0.9 -1.7 0.1 -1.5 -0.4C-1.3 -0.9 -0.6 -1.3 0.2 -1.3C0.9 -1.4 1.9 -1.1 2.2 -0.4Z" stroke="#0e4a86" fill="none" stroke-width="1"></path></g><g transform="translate(788 567)"><path d="M3.7 -0.4C4.4 0.9 4.2 3.3 3.3 3.8C2.4 4.3 0.6 2.9 -1 1.6C-2.6 0.4 -4 -0.7 -3.8 -1.3C-3.6 -1.9 -1.8 -2.1 -0.2 -2C1.5 -2 3 -1.7 3.7 -0.4Z" stroke="#0e4a86" fill="none" stroke-width="1"></path></g><g transform="translate(935 107)"><path d="M5.2 -1.5C6.7 2.8 7.7 7.4 6.3 8.4C4.9 9.3 1 6.6 -3 3.8C-7 0.9 -11.2 -2 -10.7 -4.9C-10.2 -7.8 -5.1 -10.6 -1.6 -10.1C1.9 -9.5 3.8 -5.7 5.2 -1.5Z" stroke="#0e4a86" fill="none" stroke-width="1"></path></g><g transform="translate(1550 807)"><path d="M7.3 -3.5C8.1 0.3 6.7 3.7 3.4 6.5C0.2 9.3 -4.8 11.4 -7.5 9.7C-10.1 7.9 -10.4 2.2 -8.7 -2.6C-7.1 -7.5 -3.5 -11.5 -0.2 -11.4C3.2 -11.3 6.4 -7.2 7.3 -3.5Z" stroke="#0e4a86" fill="none" stroke-width="1"></path></g><g transform="translate(613 385)"><path d="M9.6 -3.4C10.1 -1.7 6.5 1.1 2.8 3.8C-0.9 6.5 -4.7 9.1 -6.1 8.1C-7.5 7.1 -6.6 2.6 -5.2 -0.4C-3.8 -3.5 -1.9 -5 1.3 -5.5C4.6 -5.9 9.2 -5.2 9.6 -3.4Z" stroke="#0e4a86" fill="none" stroke-width="1"></path></g><g transform="translate(200 6)"><path d="M3.4 -0.9C3.7 -0.1 2.9 1.4 1.5 2.5C0.1 3.6 -1.9 4.5 -3 3.8C-4 3.1 -4.2 0.8 -3.6 -0.5C-2.9 -1.7 -1.5 -2 0 -2C1.5 -2.1 3.1 -1.8 3.4 -0.9Z" stroke="#0e4a86" fill="none" stroke-width="1"></path></g><g transform="translate(1805 47)"><path d="M9.6 -4.1C10.6 -0.1 8.3 4 4.8 6.5C1.3 9 -3.3 9.9 -5 8.3C-6.8 6.7 -5.7 2.6 -4.4 -1.8C-3.1 -6.2 -1.6 -10.9 1.4 -11.4C4.3 -11.8 8.7 -8 9.6 -4.1Z" stroke="#0e4a86" fill="none" stroke-width="1"></path></g><g transform="translate(419 132)"><path d="M7.3 -2.1C8.5 1.5 8.1 6 5.3 8.2C2.6 10.5 -2.5 10.5 -5 8.3C-7.5 6.2 -7.4 1.9 -6.1 -1.7C-4.9 -5.4 -2.4 -8.4 0.3 -8.5C3 -8.6 6 -5.7 7.3 -2.1Z" stroke="#0e4a86" fill="none" stroke-width="1"></path></g><g transform="translate(1165 265)"><path d="M4.8 -0.8C5.5 0.5 4.7 2.9 3.4 3.7C2.1 4.4 0.2 3.4 -1 2.3C-2.2 1.3 -2.6 0.1 -2.3 -0.7C-2 -1.5 -1 -2 0.5 -2.1C2.1 -2.3 4.1 -2.2 4.8 -0.8Z" stroke="#0e4a86" fill="none" stroke-width="1"></path></g><g transform="translate(343 697)"><path d="M14.4 -3.5C15.8 -0.3 12.1 5.7 7.9 8C3.8 10.4 -1 9.1 -4.8 6.4C-8.7 3.6 -11.7 -0.6 -10.7 -3.1C-9.8 -5.7 -4.9 -6.6 0.8 -6.8C6.5 -7.1 12.9 -6.7 14.4 -3.5Z" stroke="#0e4a86" fill="none" stroke-width="1"></path></g><g transform="translate(1052 437)"><path d="M5.2 -1.7C6.1 0.8 5.4 3.7 3.8 4.8C2.2 5.8 -0.4 5 -2.1 3.6C-3.8 2.2 -4.5 0.2 -4 -1.8C-3.5 -3.8 -1.8 -5.9 0.2 -5.9C2.2 -6 4.4 -4.1 5.2 -1.7Z" stroke="#0e4a86" fill="none" stroke-width="1"></path></g><g transform="translate(977 391)"><path d="M5.9 -1.6C7.7 3.5 9.1 8.9 7.5 10.1C5.9 11.2 1.2 7.9 -2.9 4.7C-7.1 1.5 -10.8 -1.6 -10.2 -5C-9.7 -8.3 -4.8 -12 -1.4 -11.5C2.1 -11.1 4.2 -6.6 5.9 -1.6Z" stroke="#0e4a86" fill="none" stroke-width="1"></path></g><g transform="translate(1775 689)"><path d="M3 -1.8C3.5 0.4 3.1 2.1 1.8 3.3C0.5 4.4 -1.7 4.9 -2.9 4.1C-4.1 3.2 -4.2 0.9 -3.5 -1.6C-2.9 -4.1 -1.4 -6.9 -0.1 -6.9C1.3 -6.8 2.6 -4 3 -1.8Z" stroke="#0e4a86" fill="none" stroke-width="1"></path></g><g transform="translate(77 22)"><path d="M4.1 -1.8C4.6 0.1 3.8 2.1 2.3 3.1C0.8 4.2 -1.2 4.3 -2.7 3.4C-4.2 2.4 -5.1 0.2 -4.5 -1.8C-4 -3.7 -2 -5.6 -0.1 -5.5C1.8 -5.5 3.6 -3.6 4.1 -1.8Z" stroke="#0e4a86" fill="none" stroke-width="1"></path></g><g transform="translate(1811 134)"><path d="M2.3 -0.6C2.6 0.2 2.2 1.4 1.5 1.9C0.7 2.4 -0.4 2.3 -1.5 1.6C-2.6 1 -3.5 -0.2 -3.3 -1C-3 -1.8 -1.5 -2.1 -0.2 -2C1 -1.9 2 -1.5 2.3 -0.6Z" stroke="#0e4a86" fill="none" stroke-width="1"></path></g><g transform="translate(220 59)"><path d="M3.1 -1.5C3.2 -0.5 2.1 0.4 1 1.2C-0.2 1.9 -1.3 2.6 -2.3 2.1C-3.3 1.6 -4.3 0 -3.9 -1.4C-3.5 -2.7 -1.7 -3.7 -0.1 -3.7C1.5 -3.6 2.9 -2.5 3.1 -1.5Z" stroke="#0e4a86" fill="none" stroke-width="1"></path></g><g transform="translate(1508 773)"><path d="M4.9 -3C5.6 0.7 5.1 3.5 3.2 4.9C1.3 6.4 -1.8 6.6 -3.7 5.2C-5.5 3.9 -6.1 0.9 -5.3 -3C-4.4 -6.9 -2.2 -11.7 -0.1 -11.6C2.1 -11.6 4.1 -6.8 4.9 -3Z" stroke="#0e4a86" fill="none" stroke-width="1"></path></g><g transform="translate(1091 908)"><path d="M0.8 -0.3C1 0.2 1 0.8 0.7 1C0.4 1.2 -0.2 1.1 -0.7 0.7C-1.2 0.4 -1.8 -0.2 -1.7 -0.7C-1.6 -1.2 -0.8 -1.6 -0.2 -1.6C0.3 -1.5 0.7 -0.9 0.8 -0.3Z" stroke="#0e4a86" fill="none" stroke-width="1"></path></g><g transform="translate(618 894)"><path d="M8.3 -2C9.5 0.8 8.1 5.1 4.9 7.7C1.6 10.3 -3.7 11.3 -6.5 9.2C-9.3 7.1 -9.8 1.9 -8.3 -1.4C-6.8 -4.7 -3.4 -6.1 0.1 -6.2C3.6 -6.2 7.2 -4.9 8.3 -2Z" stroke="#0e4a86" fill="none" stroke-width="1"></path></g><g transform="translate(896 410)"><path d="M7.2 -2.9C7.8 -0.4 5.8 2.4 3.7 3.5C1.6 4.7 -0.6 4.3 -2.1 3.1C-3.5 2 -4.3 0.2 -3.8 -2.1C-3.4 -4.4 -1.7 -7.1 0.8 -7.4C3.3 -7.7 6.6 -5.4 7.2 -2.9Z" stroke="#0e4a86" fill="none" stroke-width="1"></path></g><g transform="translate(1667 263)"><path d="M9.9 -3.8C10.5 -1.3 7.1 1.9 4.2 3.4C1.3 5 -1.1 4.9 -2.4 3.8C-3.7 2.7 -4 0.7 -3.4 -1.8C-2.8 -4.2 -1.4 -7 1.6 -7.5C4.6 -8.1 9.3 -6.3 9.9 -3.8Z" stroke="#0e4a86" fill="none" stroke-width="1"></path></g><g transform="translate(421 432)"><path d="M5.4 -2.2C5.7 -0.8 3.8 0.9 2.2 1.8C0.6 2.7 -0.8 2.9 -2.5 2C-4.1 1.1 -6.1 -0.8 -5.8 -2.2C-5.4 -3.7 -2.7 -4.7 -0.1 -4.7C2.5 -4.7 5.1 -3.6 5.4 -2.2Z" stroke="#0e4a86" fill="none" stroke-width="1"></path></g><g transform="translate(678 1)"><path d="M7 0C9.2 4.4 11.1 11.2 9.1 12.7C7.1 14.2 1.1 10.5 -3 6.9C-7.1 3.3 -9.2 -0.2 -8.4 -2.7C-7.5 -5.2 -3.8 -6.8 -0.7 -6.5C2.4 -6.3 4.8 -4.3 7 0Z" stroke="#0e4a86" fill="none" stroke-width="1"></path></g><g transform="translate(1867 980)"><path d="M7.2 -0.6C8.7 2.3 8.9 7.3 5.6 10.3C2.4 13.2 -4.3 14.1 -8 11.3C-11.8 8.5 -12.7 2 -10.9 -1.3C-9.1 -4.6 -4.5 -4.7 -0.8 -4.4C2.9 -4.1 5.7 -3.5 7.2 -0.6Z" stroke="#0e4a86" fill="none" stroke-width="1"></path></g><g transform="translate(611 583)"><path d="M7.6 -0.7C9.4 2.9 9.9 8.6 6.8 11.3C3.7 14 -3 13.6 -5.6 11C-8.1 8.3 -6.6 3.3 -5 0C-3.4 -3.4 -1.7 -5.2 0.6 -5.4C3 -5.6 5.9 -4.2 7.6 -0.7Z" stroke="#0e4a86" fill="none" stroke-width="1"></path></g><g transform="translate(1744 371)"><path d="M1.3 -0.7C1.4 -0.1 1 0.4 0.5 0.7C0.1 1.1 -0.5 1.2 -0.9 1C-1.4 0.7 -1.7 0 -1.6 -0.7C-1.4 -1.4 -0.7 -2.2 -0.1 -2.2C0.6 -2.2 1.2 -1.4 1.3 -0.7Z" stroke="#0e4a86" fill="none" stroke-width="1"></path></g><g transform="translate(1580 653)"><path d="M1.5 -0.5C1.8 0.3 1.7 1.2 1.1 1.6C0.6 2 -0.3 1.8 -0.9 1.4C-1.5 0.9 -1.7 0.1 -1.5 -0.6C-1.3 -1.3 -0.6 -2 0 -2C0.6 -2 1.3 -1.3 1.5 -0.5Z" stroke="#0e4a86" fill="none" stroke-width="1"></path></g><g transform="translate(296 66)"><path d="M3.1 -1.6C3.4 -0.2 2.5 1.1 1.5 1.8C0.4 2.5 -0.9 2.8 -1.9 2.1C-2.9 1.5 -3.6 0.1 -3.3 -1.5C-2.9 -3 -1.4 -4.5 0 -4.5C1.4 -4.5 2.9 -2.9 3.1 -1.6Z" stroke="#0e4a86" fill="none" stroke-width="1"></path></g><g transform="translate(629 41)"><path d="M9.3 -3.2C11 2 10.4 7.8 7.2 10.1C4 12.5 -1.7 11.4 -5.7 8.4C-9.6 5.4 -11.7 0.5 -10.5 -4.2C-9.2 -8.9 -4.6 -13.3 -0.4 -13.2C3.8 -13.1 7.7 -8.4 9.3 -3.2Z" stroke="#0e4a86" fill="none" stroke-width="1"></path></g><g transform="translate(38 512)"><path d="M3.1 -1.2C3.4 0 2.6 1.3 1.6 2C0.5 2.7 -0.9 2.9 -1.9 2.3C-2.9 1.6 -3.5 0.1 -3.1 -1.1C-2.7 -2.4 -1.4 -3.5 0 -3.5C1.4 -3.5 2.8 -2.4 3.1 -1.2Z" stroke="#0e4a86" fill="none" stroke-width="1"></path></g><g transform="translate(766 837)"><path d="M2.8 -0.8C3.1 0.1 2.5 1.4 1.6 2C0.7 2.6 -0.5 2.5 -1.5 1.8C-2.5 1.2 -3.2 0 -2.9 -0.9C-2.6 -1.7 -1.3 -2.1 0 -2.1C1.2 -2.1 2.5 -1.6 2.8 -0.8Z" stroke="#0e4a86" fill="none" stroke-width="1"></path></g><g transform="translate(1702 186)"><path d="M3.4 -2.2C3.9 0.1 3.2 1.8 1.7 3C0.3 4.2 -1.9 4.9 -3.3 4.1C-4.6 3.2 -5 0.7 -4.3 -2C-3.6 -4.8 -1.8 -7.8 -0.1 -7.8C1.5 -7.7 3 -4.6 3.4 -2.2Z" stroke="#0e4a86" fill="none" stroke-width="1"></path></g><g transform="translate(689 748)"><path d="M5.5 -1.4C6.6 1.5 6.5 5.2 4.5 6.7C2.6 8.2 -1.3 7.6 -3.9 5.6C-6.5 3.7 -7.9 0.3 -7 -2.3C-6.2 -5 -3.1 -6.9 -0.4 -6.8C2.2 -6.6 4.4 -4.4 5.5 -1.4Z" stroke="#0e4a86" fill="none" stroke-width="1"></path></g><g transform="translate(39 924)"><path d="M7.8 -2.4C8.3 -0.9 5.7 1.7 3.2 3.2C0.7 4.8 -1.7 5.2 -4.2 3.9C-6.6 2.5 -9.1 -0.6 -8.4 -2.3C-7.7 -4 -3.9 -4.2 -0.1 -4.2C3.6 -4.1 7.3 -3.8 7.8 -2.4Z" stroke="#0e4a86" fill="none" stroke-width="1"></path></g><g transform="translate(767 1038)"><path d="M13.8 -5.4C14.9 -1 10.8 4.2 6.9 6.3C3 8.3 -0.8 7.3 -5.3 4.7C-9.7 2 -14.9 -2.2 -14.1 -6.1C-13.4 -10 -6.7 -13.5 -0.2 -13.4C6.3 -13.4 12.6 -9.8 13.8 -5.4Z" stroke="#0e4a86" fill="none" stroke-width="1"></path></g><g transform="translate(955 686)"><path d="M9.4 -2.4C10.8 1.1 9.4 6.1 6.2 8.4C3 10.7 -2 10.2 -4.3 8C-6.5 5.9 -6 2.1 -4.8 -1.2C-3.6 -4.4 -1.8 -7 1.1 -7.3C4 -7.7 8.1 -5.8 9.4 -2.4Z" stroke="#0e4a86" fill="none" stroke-width="1"></path></g><g transform="translate(1026 830)"><path d="M2 -1C2.3 0.5 2.3 1.7 1.4 2.5C0.5 3.3 -1.2 3.7 -1.9 3.1C-2.6 2.5 -2.2 0.9 -1.7 -0.7C-1.3 -2.3 -0.6 -3.9 0.1 -3.9C0.8 -4 1.6 -2.4 2 -1Z" stroke="#0e4a86" fill="none" stroke-width="1"></path></g><g transform="translate(1684 525)"><path d="M7.3 -3.2C8 -0.3 6 2.6 3.1 4.9C0.2 7.2 -3.7 8.8 -5.7 7.4C-7.7 6 -7.9 1.7 -6.6 -2C-5.4 -5.7 -2.7 -8.7 0.3 -8.8C3.3 -8.9 6.6 -6.1 7.3 -3.2Z" stroke="#0e4a86" fill="none" stroke-width="1"></path></g><g transform="translate(197 300)"><path d="M9.1 -3.1C10.2 0.3 8.3 4.5 5.7 5.9C3.2 7.3 0 5.9 -3.1 3.7C-6.2 1.6 -9.1 -1.2 -8.6 -3.8C-8.1 -6.4 -4 -8.9 0 -8.9C4 -8.9 8.1 -6.4 9.1 -3.1Z" stroke="#0e4a86" fill="none" stroke-width="1"></path></g><g transform="translate(1040 648)"><path d="M6.3 -2.5C7.3 0.9 6.5 4.4 3.4 7.2C0.3 10 -5.1 12.2 -6.9 10.6C-8.8 9 -7.1 3.6 -5.4 -0.8C-3.7 -5.3 -1.8 -8.7 0.4 -8.9C2.7 -9 5.4 -5.8 6.3 -2.5Z" stroke="#0e4a86" fill="none" stroke-width="1"></path></g><g transform="translate(681 927)"><path d="M7.2 -1C8.9 2.9 9.6 8.5 6.4 11.3C3.3 14.2 -3.7 14.4 -7 11.5C-10.3 8.7 -10.1 2.7 -8.3 -1.2C-6.6 -5.2 -3.3 -7.2 -0.3 -7.2C2.8 -7.1 5.5 -4.9 7.2 -1Z" stroke="#0e4a86" fill="none" stroke-width="1"></path></g><g transform="translate(1200 996)"><path d="M5.8 -1.4C6.8 1.2 6.4 4.7 4.2 6.5C2 8.3 -2 8.2 -4.2 6.5C-6.5 4.7 -6.9 1.1 -5.9 -1.4C-4.9 -4 -2.5 -5.6 0 -5.6C2.4 -5.6 4.8 -4 5.8 -1.4Z" stroke="#0e4a86" fill="none" stroke-width="1"></path></g><g transform="translate(852 962)"><path d="M6.4 -1.8C7.7 1.9 7.8 6.3 5.2 8.5C2.7 10.7 -2.5 10.6 -6.9 7.8C-11.3 5 -14.9 -0.5 -13.6 -4.2C-12.4 -7.9 -6.2 -9.7 -1.8 -9.2C2.6 -8.6 5.1 -5.5 6.4 -1.8Z" stroke="#0e4a86" fill="none" stroke-width="1"></path></g><g transform="translate(306 186)"><path d="M12.3 -3.2C13.8 0.5 11.3 6.3 6.7 9.9C2 13.4 -4.8 14.7 -9.1 11.7C-13.4 8.8 -15.2 1.6 -13.2 -2.8C-11.3 -7.1 -5.7 -8.8 -0.1 -8.7C5.4 -8.7 10.9 -7 12.3 -3.2Z" stroke="#0e4a86" fill="none" stroke-width="1"></path></g><g transform="translate(191 596)"><path d="M9 -3.1C10.3 1.2 9.2 6.1 6.2 8.1C3.3 10.2 -1.5 9.4 -4.7 6.9C-8 4.5 -9.8 0.4 -8.7 -3.5C-7.7 -7.3 -3.9 -10.8 0 -10.8C3.8 -10.8 7.7 -7.3 9 -3.1Z" stroke="#0e4a86" fill="none" stroke-width="1"></path></g><g transform="translate(1062 787)"><path d="M3.2 -0.9C3.5 -0.1 2.7 1.2 1.7 1.7C0.7 2.3 -0.3 2.1 -1.2 1.5C-2.1 0.9 -2.8 -0.1 -2.5 -0.8C-2.3 -1.5 -1.2 -1.9 0.2 -1.9C1.5 -2 2.9 -1.7 3.2 -0.9Z" stroke="#0e4a86" fill="none" stroke-width="1"></path></g><g transform="translate(1890 3)"><path d="M7.9 -4.1C8.5 -0.8 6 2.1 2.7 4.7C-0.7 7.4 -4.9 10 -6.4 8.8C-8 7.7 -6.9 2.9 -5.4 -1.7C-3.9 -6.2 -1.9 -10.5 0.9 -10.8C3.7 -11.1 7.3 -7.3 7.9 -4.1Z" stroke="#0e4a86" fill="none" stroke-width="1"></path></g><g transform="translate(846 191)"><path d="M7.7 -3.5C8.6 0.5 7.2 4.3 5.1 5.5C3 6.6 0.1 5.3 -1.7 3.6C-3.5 2 -4.2 0.2 -3.7 -3.1C-3.3 -6.5 -1.6 -11.3 0.9 -11.6C3.3 -11.9 6.7 -7.6 7.7 -3.5Z" stroke="#0e4a86" fill="none" stroke-width="1"></path></g><g transform="translate(1275 892)"><path d="M4.1 -0.5C5 1.5 5.3 4.5 4.2 5.2C3.1 5.8 0.7 4.1 -1.2 2.5C-3.2 0.9 -4.7 -0.6 -4.4 -1.7C-4.1 -2.8 -2.1 -3.6 -0.2 -3.6C1.6 -3.5 3.2 -2.5 4.1 -0.5Z" stroke="#0e4a86" fill="none" stroke-width="1"></path></g><g transform="translate(1041 85)"><path d="M9.3 -3.2C10.5 0.4 8.6 4.8 6 6.2C3.4 7.6 0 6.1 -3 3.9C-6 1.7 -8.8 -1 -8.2 -3.8C-7.7 -6.6 -3.9 -9.4 0.1 -9.4C4.1 -9.5 8.2 -6.7 9.3 -3.2Z" stroke="#0e4a86" fill="none" stroke-width="1"></path></g><g transform="translate(1317 761)"><path d="M6.1 -1.2C7.3 1.8 7.3 5.9 4.7 8.3C2 10.6 -3.3 11.2 -6.3 9C-9.4 6.7 -10.1 1.6 -8.7 -1.7C-7.2 -5 -3.6 -6.5 -0.6 -6.3C2.4 -6.1 4.9 -4.2 6.1 -1.2Z" stroke="#0e4a86" fill="none" stroke-width="1"></path></g><g transform="translate(37 829)"><path d="M2.9 -1.1C3.2 -0.1 2.4 1.1 1.3 1.8C0.3 2.6 -1.1 3 -2.2 2.3C-3.3 1.7 -4.2 0 -3.8 -1.1C-3.4 -2.3 -1.7 -2.9 -0.2 -2.9C1.3 -2.8 2.6 -2 2.9 -1.1Z" stroke="#0e4a86" fill="none" stroke-width="1"></path></g><g transform="translate(1563 950)"><path d="M6.3 -2.8C7 -0.1 5.4 2.6 3.3 4C1.3 5.4 -1.3 5.4 -3.8 3.9C-6.2 2.5 -8.4 -0.5 -7.8 -3.2C-7.1 -5.9 -3.6 -8.4 -0.4 -8.2C2.8 -8.1 5.7 -5.4 6.3 -2.8Z" stroke="#0e4a86" fill="none" stroke-width="1"></path></g><g transform="translate(1766 784)"><path d="M3.7 -0.8C4.2 0.5 3.7 2.5 2.7 3C1.7 3.6 0.2 2.7 -1.3 1.7C-2.8 0.6 -4.3 -0.6 -4.1 -1.5C-3.9 -2.3 -1.9 -2.7 -0.2 -2.6C1.6 -2.6 3.1 -2 3.7 -0.8Z" stroke="#0e4a86" fill="none" stroke-width="1"></path></g><g transform="translate(1606 439)"><path d="M16.9 -5.4C18.8 0.5 15.3 8.3 10.7 10.7C6.1 13 0.6 10 -2.7 6.8C-6 3.7 -7 0.6 -6.2 -3.8C-5.3 -8.1 -2.7 -13.6 2.4 -14.4C7.5 -15.1 14.9 -11.2 16.9 -5.4Z" stroke="#0e4a86" fill="none" stroke-width="1"></path></g><g transform="translate(953 573)"><path d="M10.9 -3.7C11.9 -0.5 8.9 3.9 5.7 5.7C2.5 7.6 -1 6.8 -2.9 5.2C-4.9 3.5 -5.3 0.8 -4.6 -2.1C-3.8 -4.9 -1.9 -8 1.5 -8.5C4.9 -9 9.9 -6.9 10.9 -3.7Z" stroke="#0e4a86" fill="none" stroke-width="1"></path></g><g transform="translate(1068 309)"><path d="M7.1 -1.3C9 3.5 10.2 9.6 7.6 11.7C5 13.9 -1.3 12.2 -6.2 8.6C-11.2 5 -14.7 -0.5 -13.5 -4.4C-12.2 -8.3 -6.1 -10.6 -1.7 -10.1C2.6 -9.5 5.2 -6 7.1 -1.3Z" stroke="#0e4a86" fill="none" stroke-width="1"></path></g><g transform="translate(614 646)"><path d="M6.2 -3C6.8 -0.3 5.1 2.1 2.9 3.5C0.8 5 -1.7 5.3 -5.4 3.5C-9.2 1.7 -14.3 -2.3 -13.6 -5.1C-12.9 -7.9 -6.4 -9.6 -1.8 -9C2.8 -8.4 5.7 -5.6 6.2 -3Z" stroke="#0e4a86" fill="none" stroke-width="1"></path></g><g transform="translate(13 981)"><path d="M5.9 -3.6C6.7 0.5 5.7 3.4 3.6 5C1.5 6.5 -1.7 6.6 -5.2 4.7C-8.7 2.7 -12.5 -1.3 -11.7 -5.4C-10.9 -9.5 -5.5 -13.7 -1.4 -13.2C2.6 -12.8 5.1 -7.6 5.9 -3.6Z" stroke="#0e4a86" fill="none" stroke-width="1"></path></g><g transform="translate(1646 901)"><path d="M7.6 -3.5C8.7 0.9 7.6 4.9 4.2 7.9C0.9 10.8 -4.8 12.6 -8.9 10.1C-13 7.6 -15.6 0.9 -13.9 -4.4C-12.1 -9.7 -6.1 -13.5 -1.4 -13C3.3 -12.6 6.5 -7.9 7.6 -3.5Z" stroke="#0e4a86" fill="none" stroke-width="1"></path></g><g transform="translate(862 787)"><path d="M5 -1.4C5.6 0.4 4.7 2.8 3 4.1C1.3 5.3 -1.3 5.3 -2.4 4.3C-3.5 3.2 -3.2 1.2 -2.5 -0.6C-1.9 -2.3 -0.9 -3.7 0.6 -3.9C2.2 -4.1 4.4 -3.1 5 -1.4Z" stroke="#0e4a86" fill="none" stroke-width="1"></path></g><g transform="translate(497 442)"><path d="M7.9 -3.6C8.7 -0.1 6.7 3.3 4.3 4.8C1.8 6.4 -1.2 6.1 -5 4.1C-8.7 2 -13 -1.8 -12.3 -5.2C-11.6 -8.7 -5.8 -11.7 -1.1 -11.3C3.5 -10.9 7.1 -7.2 7.9 -3.6Z" stroke="#0e4a86" fill="none" stroke-width="1"></path></g><g transform="translate(102 999)"><path d="M2.6 -0.5C3.2 1 3.4 3 2.2 4.1C0.9 5.3 -1.7 5.6 -3.3 4.5C-5 3.3 -5.6 0.6 -4.9 -1C-4.1 -2.6 -2.1 -3.2 -0.5 -3C1 -2.9 2 -1.9 2.6 -0.5Z" stroke="#0e4a86" fill="none" stroke-width="1"></path></g><g transform="translate(279 1021)"><path d="M9.6 -4C10.6 0.1 8.4 4.3 5.6 5.9C2.8 7.5 -0.6 6.6 -2.8 4.8C-5 3 -6 0.4 -5.3 -3.3C-4.6 -6.9 -2.3 -11.5 1 -11.8C4.3 -12.1 8.6 -8.2 9.6 -4Z" stroke="#0e4a86" fill="none" stroke-width="1"></path></g><g transform="translate(1268 15)"><path d="M8.5 -2.9C9.6 0.7 8.2 4.9 5.1 7.2C2 9.5 -2.7 9.8 -6 7.6C-9.3 5.3 -11.3 0.5 -10 -3.2C-8.8 -6.9 -4.4 -9.4 -0.3 -9.3C3.7 -9.2 7.4 -6.4 8.5 -2.9Z" stroke="#0e4a86" fill="none" stroke-width="1"></path></g><g transform="translate(975 256)"><path d="M5.8 -1.5C7.1 2.2 7.6 6.7 5.6 8.3C3.6 9.8 -0.9 8.6 -3.3 6.4C-5.8 4.2 -6.2 1 -5.3 -2C-4.4 -5.1 -2.2 -8.1 0 -8.2C2.2 -8.2 4.4 -5.2 5.8 -1.5Z" stroke="#0e4a86" fill="none" stroke-width="1"></path></g><g transform="translate(550 722)"><path d="M3.2 -0.9C3.5 -0.2 2.5 1 1.4 1.8C0.2 2.6 -1.1 3 -1.8 2.5C-2.4 2 -2.4 0.6 -2 -0.2C-1.6 -1.1 -0.8 -1.5 0.3 -1.6C1.5 -1.7 2.9 -1.6 3.2 -0.9Z" stroke="#0e4a86" fill="none" stroke-width="1"></path></g><g transform="translate(1521 569)"><path d="M11.3 -3.5C12.1 -1.2 8.5 2.8 4.2 6C-0.2 9.2 -5.2 11.6 -8.6 9.7C-11.9 7.8 -13.6 1.4 -11.8 -2.2C-10.1 -5.8 -5.1 -6.6 0.1 -6.6C5.3 -6.7 10.5 -5.9 11.3 -3.5Z" stroke="#0e4a86" fill="none" stroke-width="1"></path></g><g transform="translate(1905 194)"><path d="M4.3 -1.2C4.8 0 3.8 1.9 1.7 3.7C-0.4 5.6 -3.6 7.5 -4.7 6.7C-5.8 5.8 -4.8 2.3 -3.7 0.2C-2.5 -1.9 -1.3 -2.5 0.3 -2.6C1.9 -2.7 3.9 -2.3 4.3 -1.2Z" stroke="#0e4a86" fill="none" stroke-width="1"></path></g><g transform="translate(132 582)"><path d="M5.9 -1.4C6.8 0.9 6.2 4.3 4.2 5.7C2.2 7.1 -1.1 6.6 -3 5.1C-4.8 3.5 -5 0.9 -4.3 -1.2C-3.6 -3.3 -1.8 -5 0.4 -5.1C2.5 -5.2 5 -3.8 5.9 -1.4Z" stroke="#0e4a86" fill="none" stroke-width="1"></path></g><g transform="translate(1310 391)"><path d="M3.8 -1C4.6 1.1 4.6 3.7 2.9 5.1C1.2 6.6 -2.1 7 -4 5.6C-5.9 4.2 -6.4 0.9 -5.5 -1.4C-4.7 -3.7 -2.3 -5 -0.4 -4.9C1.5 -4.8 3 -3.1 3.8 -1Z" stroke="#0e4a86" fill="none" stroke-width="1"></path></g><g transform="translate(977 756)"><path d="M4.5 -2.2C4.7 -0.7 3.1 0.6 1.5 1.7C-0.1 2.7 -1.5 3.4 -2.4 2.9C-3.2 2.4 -3.4 0.6 -2.9 -1.2C-2.4 -3 -1.2 -4.8 0.5 -5C2.1 -5.1 4.2 -3.6 4.5 -2.2Z" stroke="#0e4a86" fill="none" stroke-width="1"></path></g><g transform="translate(1323 37)"><path d="M8.7 -5.3C9.3 -1 6.5 2.1 3.7 3.7C0.9 5.4 -1.8 5.8 -4.7 4.2C-7.6 2.6 -10.7 -0.9 -9.9 -5.5C-9.2 -10.1 -4.6 -15.7 -0.3 -15.6C4.1 -15.5 8.1 -9.7 8.7 -5.3Z" stroke="#0e4a86" fill="none" stroke-width="1"></path></g><g transform="translate(816 1013)"><path d="M2.4 -1C2.6 -0.1 2 0.8 1.3 1.2C0.6 1.5 0 1.2 -0.8 0.7C-1.6 0.3 -2.6 -0.4 -2.5 -1.2C-2.3 -1.9 -1.2 -2.7 0 -2.7C1.1 -2.7 2.2 -1.9 2.4 -1Z" stroke="#0e4a86" fill="none" stroke-width="1"></path></g><g transform="translate(276 775)"><path d="M0.8 -0.3C1 0.1 0.9 0.6 0.6 0.8C0.2 1.1 -0.3 1.1 -0.8 0.8C-1.3 0.5 -1.8 -0.1 -1.7 -0.5C-1.5 -1 -0.8 -1.2 -0.2 -1.1C0.4 -1.1 0.7 -0.7 0.8 -0.3Z" stroke="#0e4a86" fill="none" stroke-width="1"></path></g><g transform="translate(551 108)"><path d="M8.6 -1.5C9.7 0.7 8.3 5 5.4 7.1C2.4 9.1 -1.9 8.8 -5 6.6C-8.1 4.4 -9.9 0.3 -8.9 -1.8C-7.9 -3.8 -3.9 -3.8 -0.1 -3.8C3.7 -3.7 7.5 -3.7 8.6 -1.5Z" stroke="#0e4a86" fill="none" stroke-width="1"></path></g><g transform="translate(1651 182)"><path d="M4.4 -1C5.2 1 4.9 3.7 3.5 4.7C2.1 5.8 -0.6 5.1 -3.2 3.4C-5.9 1.7 -8.5 -1 -8 -2.6C-7.5 -4.2 -3.7 -4.7 -1 -4.3C1.8 -4 3.6 -2.9 4.4 -1Z" stroke="#0e4a86" fill="none" stroke-width="1"></path></g><g transform="translate(816 871)"><path d="M11.3 -5.7C12.2 -1 8.7 3.1 4.8 5.8C0.8 8.5 -3.6 9.8 -5.8 8.2C-8 6.6 -8 2 -6.6 -3.3C-5.3 -8.7 -2.6 -14.8 1.3 -15.2C5.2 -15.6 10.4 -10.3 11.3 -5.7Z" stroke="#0e4a86" fill="none" stroke-width="1"></path></g><g transform="translate(577 15)"><path d="M2.7 -0.7C3.2 0.6 3 2.2 2.1 2.8C1.3 3.4 -0.3 3 -1.3 2.1C-2.4 1.3 -3 0.1 -2.7 -0.9C-2.4 -1.9 -1.2 -2.7 0 -2.7C1.1 -2.7 2.2 -1.9 2.7 -0.7Z" stroke="#0e4a86" fill="none" stroke-width="1"></path></g><g transform="translate(1262 754)"><path d="M1.5 -0.6C1.7 0.2 1.5 1 0.9 1.5C0.2 2.1 -0.8 2.3 -1.5 1.9C-2.2 1.4 -2.6 0.2 -2.3 -0.7C-2 -1.6 -1 -2.2 -0.2 -2.1C0.6 -2.1 1.3 -1.4 1.5 -0.6Z" stroke="#0e4a86" fill="none" stroke-width="1"></path></g><g transform="translate(1444 284)"><path d="M6.6 -1.7C8 2.1 8.2 6.8 5.5 9.1C2.9 11.4 -2.6 11.3 -6.5 8.6C-10.3 5.9 -12.5 0.5 -11.1 -3.2C-9.8 -7 -4.9 -9.1 -1.1 -8.8C2.6 -8.4 5.2 -5.5 6.6 -1.7Z" stroke="#0e4a86" fill="none" stroke-width="1"></path></g><g transform="translate(190 664)"><path d="M2.4 -0.6C2.7 0.1 2.2 1.2 1.2 2C0.2 2.8 -1.3 3.3 -2 2.8C-2.7 2.3 -2.5 0.8 -2 -0.2C-1.5 -1.1 -0.8 -1.5 0.2 -1.6C1.1 -1.6 2.2 -1.3 2.4 -0.6Z" stroke="#0e4a86" fill="none" stroke-width="1"></path></g><g transform="translate(1610 9)"><path d="M5.4 -2.1C5.9 -0.2 4.5 2 2.5 3.6C0.4 5.1 -2.2 5.9 -4 4.8C-5.7 3.7 -6.5 0.7 -5.7 -1.7C-4.9 -4 -2.5 -5.6 0 -5.6C2.4 -5.6 4.9 -4 5.4 -2.1Z" stroke="#0e4a86" fill="none" stroke-width="1"></path></g><g transform="translate(1485 866)"><path d="M6.8 -4C7.7 0.6 6.6 4.1 3.7 6.6C0.9 9 -3.8 10.3 -7.8 8C-11.9 5.7 -15.3 -0.2 -13.9 -5.5C-12.5 -10.8 -6.2 -15.6 -1.7 -15.1C2.9 -14.5 5.8 -8.7 6.8 -4Z" stroke="#0e4a86" fill="none" stroke-width="1"></path></g><g transform="translate(1560 411)"><path d="M2.3 -0.5C2.7 0.4 2.4 1.7 1.7 2.2C0.9 2.7 -0.3 2.5 -1.3 1.7C-2.4 1 -3.2 -0.1 -2.9 -0.8C-2.6 -1.5 -1.3 -1.8 -0.2 -1.7C1 -1.6 1.9 -1.3 2.3 -0.5Z" stroke="#0e4a86" fill="none" stroke-width="1"></path></g><g transform="translate(761 165)"><path d="M8.5 -3.4C9.3 -0.2 7.1 3.3 4.8 4.4C2.6 5.5 0.2 4.3 -2.6 2.5C-5.3 0.8 -8.5 -1.5 -8.1 -4.1C-7.8 -6.6 -3.9 -9.5 0 -9.5C3.8 -9.5 7.6 -6.6 8.5 -3.4Z" stroke="#0e4a86" fill="none" stroke-width="1"></path></g><g transform="translate(1850 409)"><path d="M12.8 -5.4C13.9 -0.6 10.4 4.5 5.5 8.2C0.5 12 -5.9 14.5 -9.7 12C-13.5 9.6 -14.7 2.2 -12.7 -3.9C-10.6 -9.9 -5.3 -14.7 0.2 -14.8C5.8 -14.9 11.6 -10.3 12.8 -5.4Z" stroke="#0e4a86" fill="none" stroke-width="1"></path></g><g transform="translate(913 479)"><path d="M1.3 -0.3C1.4 0.2 1.3 0.8 0.9 1.1C0.5 1.4 -0.2 1.3 -0.8 0.9C-1.5 0.5 -2.2 -0.2 -2 -0.6C-1.9 -1 -0.9 -1.1 -0.2 -1.1C0.5 -1 1.1 -0.8 1.3 -0.3Z" stroke="#0e4a86" fill="none" stroke-width="1"></path></g><g transform="translate(527 1057)"><path d="M9.2 -0.4C11.6 4.1 12.7 11.6 9.8 13.7C7 15.8 0.1 12.5 -5.2 8.3C-10.5 4.2 -14.3 -0.8 -13.2 -3.7C-12.1 -6.5 -6 -7.1 -1.3 -6.7C3.5 -6.2 6.9 -4.8 9.2 -0.4Z" stroke="#0e4a86" fill="none" stroke-width="1"></path></g><g transform="translate(380 1045)"><path d="M2.5 -0.6C2.8 0.1 2.3 1.2 1.2 2C0.2 2.9 -1.4 3.4 -2.1 2.9C-2.9 2.3 -2.9 0.7 -2.4 -0.2C-1.9 -1.1 -1 -1.3 0.1 -1.4C1.1 -1.4 2.2 -1.2 2.5 -0.6Z" stroke="#0e4a86" fill="none" stroke-width="1"></path></g><g transform="translate(1346 964)"><path d="M7.2 -1.5C7.9 0.1 6.3 3.2 4.2 4.5C2 5.7 -0.6 5.1 -1.8 3.8C-3 2.6 -2.9 0.9 -2.3 -0.4C-1.8 -1.7 -0.9 -2.4 1.1 -2.8C3.2 -3.2 6.4 -3.1 7.2 -1.5Z" stroke="#0e4a86" fill="none" stroke-width="1"></path></g><g transform="translate(254 637)"><path d="M9.9 -2.9C11 0.1 8.7 4.5 6.1 5.7C3.6 7 0.7 5 -1.4 3.2C-3.5 1.4 -4.8 -0.3 -4.4 -2.4C-4 -4.5 -2 -7 1.2 -7.3C4.4 -7.7 8.8 -6 9.9 -2.9Z" stroke="#0e4a86" fill="none" stroke-width="1"></path></g><g transform="translate(332 959)"><path d="M2.7 -1.1C3.1 0.5 2.9 2.1 1.8 3C0.7 4 -1.3 4.3 -2.2 3.5C-3.2 2.7 -3 0.9 -2.5 -0.8C-1.9 -2.6 -1 -4.2 0.1 -4.2C1.1 -4.3 2.2 -2.7 2.7 -1.1Z" stroke="#0e4a86" fill="none" stroke-width="1"></path></g><g transform="translate(1439 441)"><path d="M5 -1.1C5.7 0.7 5.1 3.4 3.2 4.8C1.4 6.3 -1.7 6.4 -2.9 5.2C-4.2 4 -3.7 1.5 -2.9 -0.3C-2.1 -2.1 -1 -3.3 0.5 -3.4C2.1 -3.6 4.2 -2.8 5 -1.1Z" stroke="#0e4a86" fill="none" stroke-width="1"></path></g><g transform="translate(1165 754)"><path d="M11.5 -3.4C12.6 -0.4 9.5 4.2 6.2 6C2.9 7.8 -0.6 6.7 -3.8 4.6C-6.9 2.4 -9.7 -0.8 -9 -3.2C-8.4 -5.6 -4.2 -7.2 0.5 -7.4C5.2 -7.6 10.5 -6.3 11.5 -3.4Z" stroke="#0e4a86" fill="none" stroke-width="1"></path></g><g transform="translate(1051 502)"><path d="M6.6 -2.2C7.2 -0.3 5.4 2.4 2.9 4.3C0.4 6.2 -3 7.4 -4.4 6.3C-5.9 5.2 -5.6 1.7 -4.6 -0.8C-3.5 -3.4 -1.8 -5 0.6 -5.2C3 -5.4 6 -4.2 6.6 -2.2Z" stroke="#0e4a86" fill="none" stroke-width="1"></path></g><g transform="translate(868 266)"><path d="M16.9 -3.4C18.9 0.7 15.5 8.6 10.7 11.3C5.9 14 -0.3 11.5 -6.1 7.5C-11.9 3.5 -17.3 -1.9 -16.3 -4.7C-15.2 -7.5 -7.6 -7.7 -0.1 -7.6C7.4 -7.6 14.9 -7.4 16.9 -3.4Z" stroke="#0e4a86" fill="none" stroke-width="1"></path></g><g transform="translate(769 256)"><path d="M8.9 -2.2C10.4 1.7 9.7 7 6.4 9.6C3 12.3 -2.9 12.2 -7.1 9.2C-11.3 6.3 -13.8 0.5 -12.3 -3.3C-10.9 -7.2 -5.4 -9 -0.9 -8.7C3.7 -8.5 7.4 -6 8.9 -2.2Z" stroke="#0e4a86" fill="none" stroke-width="1"></path></g><g transform="translate(223 129)"><path d="M9.4 -2.9C10.7 0.8 9.1 5.5 5.8 7.9C2.4 10.3 -2.6 10.4 -5 8.3C-7.4 6.2 -7.2 1.9 -6 -1.8C-4.7 -5.5 -2.4 -8.6 0.9 -8.9C4.1 -9.2 8.2 -6.6 9.4 -2.9Z" stroke="#0e4a86" fill="none" stroke-width="1"></path></g><g transform="translate(1775 298)"><path d="M4.7 -0.7C5.4 0.5 4.7 3 3.1 4.1C1.6 5.2 -0.9 5 -2.5 3.7C-4.1 2.5 -4.8 0.4 -4.2 -0.7C-3.6 -1.8 -1.8 -1.8 0.1 -1.8C2 -1.9 4 -1.9 4.7 -0.7Z" stroke="#0e4a86" fill="none" stroke-width="1"></path></g><g transform="translate(1312 689)"><path d="M12.7 -1.7C14.9 2.7 14 10.4 9.5 13.9C5 17.3 -3.1 16.4 -7 12.9C-10.9 9.3 -10.4 3 -8.6 -0.9C-6.7 -4.7 -3.3 -6.2 0.9 -6.5C5.2 -6.8 10.5 -6 12.7 -1.7Z" stroke="#0e4a86" fill="none" stroke-width="1"></path></g><g transform="translate(531 893)"><path d="M9.9 -5C10.7 -0.8 7.7 2.8 4.8 4.4C1.9 5.9 -0.8 5.5 -4.1 3.6C-7.3 1.7 -11.1 -1.6 -10.5 -5.5C-9.9 -9.4 -4.9 -14 -0.2 -13.9C4.6 -13.9 9.1 -9.2 9.9 -5Z" stroke="#0e4a86" fill="none" stroke-width="1"></path></g><g transform="translate(302 308)"><path d="M10.9 -2.6C12.4 0.9 10.5 6.4 7.4 8.2C4.2 10 -0.2 8.1 -3.6 5.5C-7.1 2.9 -9.6 -0.5 -8.9 -3.1C-8.1 -5.7 -4.1 -7.4 0.3 -7.5C4.8 -7.6 9.5 -6.1 10.9 -2.6Z" stroke="#0e4a86" fill="none" stroke-width="1"></path></g><g transform="translate(687 262)"><path d="M3.3 -0.6C3.8 0.4 3.3 2.1 2.1 3C0.8 4 -1.1 4.1 -2 3.3C-2.9 2.6 -2.7 0.9 -2.2 -0.2C-1.7 -1.2 -0.8 -1.7 0.3 -1.8C1.4 -1.9 2.9 -1.6 3.3 -0.6Z" stroke="#0e4a86" fill="none" stroke-width="1"></path></g><g transform="translate(1899 683)"><path d="M8 -3.6C9.3 1.3 8.4 5.8 5.8 7.6C3.2 9.4 -1.1 8.5 -5 5.9C-8.8 3.3 -12.1 -0.8 -11.2 -5.2C-10.3 -9.7 -5.1 -14.3 -0.9 -14C3.4 -13.7 6.8 -8.5 8 -3.6Z" stroke="#0e4a86" fill="none" stroke-width="1"></path></g><g transform="translate(699 100)"><path d="M6.4 -4.5C7 -0.3 5.2 2.3 2.5 4.5C-0.2 6.8 -4 8.7 -7 7.1C-10.1 5.5 -12.4 0.4 -11.1 -4.8C-9.8 -10 -4.9 -15.3 -1 -14.9C2.9 -14.6 5.8 -8.7 6.4 -4.5Z" stroke="#0e4a86" fill="none" stroke-width="1"></path></g><g transform="translate(480 941)"><path d="M7.7 -2C9.2 2.1 9.1 7.2 6.4 9.3C3.6 11.5 -1.7 10.6 -5.7 7.7C-9.7 4.9 -12.3 0 -11.1 -3.7C-10 -7.3 -5 -9.8 -0.9 -9.5C3.1 -9.2 6.2 -6.1 7.7 -2Z" stroke="#0e4a86" fill="none" stroke-width="1"></path></g><g transform="translate(113 643)"><path d="M7.4 -3.9C8.8 1.9 8.5 6.7 5.3 9.6C2 12.5 -4.3 13.6 -8.9 10.6C-13.5 7.7 -16.4 0.7 -14.7 -5.6C-12.9 -11.9 -6.5 -17.5 -1.7 -17C3 -16.4 6 -9.7 7.4 -3.9Z" stroke="#0e4a86" fill="none" stroke-width="1"></path></g><g transform="translate(492 378)"><path d="M1.4 -0.1C1.8 0.6 1.9 1.8 1.4 2.2C0.8 2.7 -0.4 2.5 -1 2C-1.5 1.4 -1.3 0.5 -1.1 -0.1C-0.8 -0.7 -0.4 -1 0.1 -1C0.5 -1 1.1 -0.8 1.4 -0.1Z" stroke="#0e4a86" fill="none" stroke-width="1"></path></g><g transform="translate(1587 269)"><path d="M1.5 -0.5C1.8 0.5 1.9 1.6 1.5 1.9C1.1 2.1 0.2 1.5 -0.6 1C-1.3 0.4 -1.9 -0.2 -1.8 -1C-1.7 -1.7 -0.9 -2.6 -0.1 -2.5C0.6 -2.5 1.2 -1.5 1.5 -0.5Z" stroke="#0e4a86" fill="none" stroke-width="1"></path></g><g transform="translate(370 879)"><path d="M2.8 -1.1C3 -0.3 2.1 0.7 1.3 1.2C0.5 1.6 -0.3 1.5 -1.1 1C-1.9 0.5 -2.8 -0.3 -2.7 -1.2C-2.5 -2 -1.2 -2.7 0 -2.7C1.3 -2.7 2.6 -2 2.8 -1.1Z" stroke="#0e4a86" fill="none" stroke-width="1"></path></g><g transform="translate(673 542)"><path d="M8.6 -2.2C9.4 -0.2 7.2 3.3 4.6 4.8C2.1 6.3 -0.8 5.7 -3.1 4.1C-5.4 2.5 -7 -0.1 -6.4 -1.8C-5.7 -3.5 -2.9 -4.2 0.5 -4.4C3.9 -4.6 7.7 -4.2 8.6 -2.2Z" stroke="#0e4a86" fill="none" stroke-width="1"></path></g><g transform="translate(1584 557)"><path d="M7.9 -1.4C9.2 1.2 8.3 5.7 6.2 6.8C4.1 7.9 0.8 5.6 -2.8 3.2C-6.5 0.7 -10.5 -2 -10.1 -3.5C-9.6 -4.9 -4.8 -5.2 -0.7 -4.9C3.3 -4.7 6.7 -4 7.9 -1.4Z" stroke="#0e4a86" fill="none" stroke-width="1"></path></g><g transform="translate(880 585)"><path d="M7.4 -3C8.6 1.2 7.8 5.4 4.7 8.1C1.6 10.7 -3.9 11.8 -6.9 9.6C-9.8 7.4 -10.3 2 -8.7 -2.8C-7.1 -7.5 -3.6 -11.5 -0.2 -11.4C3.1 -11.4 6.3 -7.2 7.4 -3Z" stroke="#0e4a86" fill="none" stroke-width="1"></path></g><g transform="translate(1360 365)"><path d="M6.1 -2.7C6.6 -0.5 4.8 1.8 2.7 3.2C0.6 4.6 -1.8 5.2 -3.9 4C-5.9 2.8 -7.7 -0.2 -7 -2.6C-6.3 -5.1 -3.2 -7.1 -0.2 -7.1C2.8 -7 5.6 -4.9 6.1 -2.7Z" stroke="#0e4a86" fill="none" stroke-width="1"></path></g><g transform="translate(442 1029)"><path d="M1.9 -0.6C2.1 -0.1 1.5 0.7 0.9 1.1C0.3 1.4 -0.4 1.4 -1 1C-1.7 0.6 -2.4 -0.2 -2.2 -0.7C-2.1 -1.3 -1 -1.5 -0.1 -1.5C0.9 -1.4 1.7 -1.1 1.9 -0.6Z" stroke="#0e4a86" fill="none" stroke-width="1"></path></g><g transform="translate(1638 699)"><path d="M12.3 -3.7C13.5 -0.4 10.2 4.6 5.7 7.8C1.2 11.1 -4.5 12.5 -6.6 10.6C-8.7 8.7 -7.3 3.4 -5.6 -0.6C-3.9 -4.6 -2 -7.2 1.8 -7.8C5.6 -8.4 11.2 -6.9 12.3 -3.7Z" stroke="#0e4a86" fill="none" stroke-width="1"></path></g><g transform="translate(134 459)"><path d="M1.3 -0.5C1.4 -0.2 1 0.2 0.4 0.7C-0.2 1.2 -1 1.8 -1.5 1.5C-2 1.3 -2.3 0.2 -2 -0.4C-1.7 -1 -0.8 -1.3 -0.1 -1.2C0.6 -1.2 1.2 -0.9 1.3 -0.5Z" stroke="#0e4a86" fill="none" stroke-width="1"></path></g><g transform="translate(574 1016)"><path d="M1.8 -0.4C2.2 0.7 2.3 2 1.8 2.4C1.3 2.7 0.1 2.1 -1.3 1.2C-2.8 0.3 -4.6 -0.9 -4.4 -1.7C-4.2 -2.5 -2.1 -2.9 -0.7 -2.7C0.7 -2.5 1.4 -1.6 1.8 -0.4Z" stroke="#0e4a86" fill="none" stroke-width="1"></path></g><g transform="translate(776 371)"><path d="M6.7 -3C7.3 -0.4 5.4 2.3 3.1 3.8C0.8 5.4 -1.9 5.9 -3.6 4.8C-5.2 3.6 -5.8 0.8 -5 -2.1C-4.2 -5 -2.1 -7.9 0.5 -8.1C3.1 -8.2 6.1 -5.6 6.7 -3Z" stroke="#0e4a86" fill="none" stroke-width="1"></path></g><g transform="translate(111 392)"><path d="M4.5 -1.6C5.1 0.3 4.3 2.5 2.8 3.5C1.3 4.5 -0.8 4.2 -2.2 3.1C-3.6 2.1 -4.3 0.2 -3.9 -1.5C-3.4 -3.3 -1.7 -4.9 0.1 -4.9C2 -5 3.9 -3.4 4.5 -1.6Z" stroke="#0e4a86" fill="none" stroke-width="1"></path></g><g transform="translate(1435 611)"><path d="M4.9 -1.3C5.4 0 4.2 2.1 2.5 3.2C0.9 4.4 -1.3 4.6 -2.5 3.7C-3.7 2.7 -4 0.7 -3.4 -0.7C-2.8 -2 -1.4 -2.6 0.4 -2.8C2.2 -2.9 4.4 -2.5 4.9 -1.3Z" stroke="#0e4a86" fill="none" stroke-width="1"></path></g><g transform="translate(366 83)"><path d="M2.7 -0.1C3.4 1 3.5 3.1 2.4 4.1C1.2 5.1 -1.2 5.1 -2.7 4C-4.1 2.9 -4.4 0.7 -3.8 -0.5C-3.2 -1.6 -1.6 -1.7 -0.3 -1.6C1.1 -1.5 2.1 -1.3 2.7 -0.1Z" stroke="#0e4a86" fill="none" stroke-width="1"></path></g><g transform="translate(671 421)"><path d="M0.8 -0.4C0.9 0.1 0.8 0.5 0.3 0.9C-0.1 1.3 -0.8 1.7 -1.1 1.4C-1.4 1.2 -1.4 0.4 -1.2 -0.3C-0.9 -0.9 -0.5 -1.4 -0.1 -1.3C0.3 -1.3 0.7 -0.8 0.8 -0.4Z" stroke="#0e4a86" fill="none" stroke-width="1"></path></g><g transform="translate(966 156)"><path d="M6.2 -1.9C6.8 -0.2 5.2 2.4 2.9 4.1C0.6 5.8 -2.4 6.6 -4.1 5.4C-5.9 4.2 -6.4 1 -5.5 -1.2C-4.6 -3.4 -2.3 -4.5 0.2 -4.6C2.8 -4.7 5.6 -3.7 6.2 -1.9Z" stroke="#0e4a86" fill="none" stroke-width="1"></path></g><g transform="translate(613 775)"><path d="M3.8 -0.5C4.5 1.2 4.6 3.8 3.5 4.5C2.5 5.3 0.2 4 -1.6 2.6C-3.5 1.2 -4.9 -0.4 -4.6 -1.6C-4.2 -2.7 -2.1 -3.3 -0.3 -3.2C1.5 -3.1 3 -2.3 3.8 -0.5Z" stroke="#0e4a86" fill="none" stroke-width="1"></path></g><g transform="translate(1014 577)"><path d="M3.6 -0.4C4.3 0.9 4.2 3.3 3.2 3.9C2.1 4.5 0.2 3.5 -1.3 2.3C-2.8 1.1 -3.9 -0.3 -3.6 -1C-3.3 -1.8 -1.7 -2 -0.1 -2C1.5 -1.9 3 -1.7 3.6 -0.4Z" stroke="#0e4a86" fill="none" stroke-width="1"></path></g><g transform="translate(1299 333)"><path d="M8.2 -2.8C8.9 -0.6 6.4 2.4 3.4 4.6C0.3 6.8 -3.3 8.1 -6 6.5C-8.8 4.9 -10.7 0.4 -9.6 -2.4C-8.4 -5.2 -4.2 -6.3 -0.2 -6.2C3.8 -6.1 7.5 -4.9 8.2 -2.8Z" stroke="#0e4a86" fill="none" stroke-width="1"></path></g><g transform="translate(373 509)"><path d="M4.6 -0.3C5.7 1.9 6.2 5.6 4.7 6.8C3.1 8 -0.5 6.8 -3.4 4.7C-6.3 2.5 -8.5 -0.5 -7.8 -2.1C-7.1 -3.7 -3.6 -3.9 -0.9 -3.6C1.8 -3.3 3.5 -2.5 4.6 -0.3Z" stroke="#0e4a86" fill="none" stroke-width="1"></path></g><g transform="translate(1735 651)"><path d="M7 -2.9C8.6 2.6 9.1 7.9 6.7 9.8C4.2 11.7 -1.1 10.3 -5.4 7.2C-9.7 4.1 -13.1 -0.6 -12 -5.4C-10.9 -10.2 -5.5 -15.1 -1.4 -14.6C2.7 -14.2 5.5 -8.4 7 -2.9Z" stroke="#0e4a86" fill="none" stroke-width="1"></path></g><g transform="translate(1730 875)"><path d="M4.9 -2.6C5.4 -0.1 4.2 2 2.8 2.8C1.4 3.6 -0.2 3 -2.1 1.9C-4 0.7 -6.2 -1 -5.9 -3.2C-5.6 -5.5 -2.8 -8.2 -0.3 -8.1C2.2 -8 4.4 -5.1 4.9 -2.6Z" stroke="#0e4a86" fill="none" stroke-width="1"></path></g><g transform="translate(292 11)"><path d="M4.2 -0.8C4.7 0.4 4.1 2.5 2.6 3.5C1.2 4.5 -0.9 4.4 -2.3 3.3C-3.8 2.3 -4.4 0.3 -3.9 -0.8C-3.4 -1.9 -1.7 -2.2 0 -2.2C1.8 -2.2 3.6 -2 4.2 -0.8Z" stroke="#0e4a86" fill="none" stroke-width="1"></path></g><g transform="translate(1227 540)"><path d="M4.6 -1.1C5.2 0.5 4.5 2.8 3.1 3.7C1.7 4.6 -0.4 4.1 -2 2.9C-3.5 1.8 -4.4 0 -3.9 -1.2C-3.5 -2.4 -1.8 -3.2 0.1 -3.2C2 -3.3 3.9 -2.6 4.6 -1.1Z" stroke="#0e4a86" fill="none" stroke-width="1"></path></g><g transform="translate(195 235)"><path d="M5.4 -0.3C6.9 3 8 7.8 6.4 9C4.8 10.2 0.5 7.8 -2.9 5C-6.3 2.3 -8.7 -0.6 -8.1 -2.7C-7.4 -4.7 -3.7 -5.9 -0.9 -5.6C1.9 -5.3 3.8 -3.6 5.4 -0.3Z" stroke="#0e4a86" fill="none" stroke-width="1"></path></g><g transform="translate(609 498)"><path d="M7 -1.9C8.9 3.4 10 9.4 8 10.7C6.1 12.1 1 8.8 -2.2 5.9C-5.4 2.9 -6.8 0.1 -6.1 -3.6C-5.5 -7.4 -2.7 -12.1 -0.1 -12C2.6 -12 5.1 -7.3 7 -1.9Z" stroke="#0e4a86" fill="none" stroke-width="1"></path></g><g transform="translate(399 754)"><path d="M10.8 -4.3C12.2 0.8 10.3 6.1 6.4 9C2.4 11.9 -3.4 12.4 -6.5 9.9C-9.5 7.5 -9.7 2.2 -8.1 -3.2C-6.5 -8.5 -3.3 -13.8 0.7 -14C4.7 -14.2 9.5 -9.4 10.8 -4.3Z" stroke="#0e4a86" fill="none" stroke-width="1"></path></g><g transform="translate(1779 954)"><path d="M6.8 -2.1C7.8 0.7 6.8 4.3 4.7 5.7C2.6 7 -0.5 6 -2.9 4.3C-5.3 2.5 -6.8 -0.1 -6.2 -2.5C-5.6 -4.8 -2.8 -6.9 0.1 -6.9C2.9 -6.9 5.9 -4.9 6.8 -2.1Z" stroke="#0e4a86" fill="none" stroke-width="1"></path></g><g transform="translate(1336 820)"><path d="M6.2 -3.2C6.5 -0.8 4.4 1.1 2.5 2.2C0.7 3.2 -0.9 3.3 -2.4 2.4C-3.9 1.5 -5.2 -0.3 -4.8 -2.7C-4.4 -5.2 -2.2 -8.2 0.3 -8.3C2.9 -8.4 5.8 -5.6 6.2 -3.2Z" stroke="#0e4a86" fill="none" stroke-width="1"></path></g><g transform="translate(666 640)"><path d="M8.9 -3.3C10 0.5 8.3 4.8 5.2 7C2.1 9.2 -2.4 9.4 -4.6 7.5C-6.8 5.6 -6.6 1.8 -5.5 -2.1C-4.3 -5.9 -2.2 -9.7 0.9 -10C3.9 -10.3 7.8 -7.1 8.9 -3.3Z" stroke="#0e4a86" fill="none" stroke-width="1"></path></g><g transform="translate(1151 864)"><path d="M2.1 -0.5C2.4 0.4 2.3 1.7 1.6 2.2C1 2.7 -0.3 2.4 -0.8 1.8C-1.3 1.3 -1.1 0.5 -0.9 -0.3C-0.6 -1.1 -0.3 -1.9 0.3 -2C0.9 -2.1 1.7 -1.4 2.1 -0.5Z" stroke="#0e4a86" fill="none" stroke-width="1"></path></g><g transform="translate(1347 880)"><path d="M3.5 -0.9C4.1 0.7 3.8 2.8 2.4 4C1 5.1 -1.6 5.4 -3.4 4.2C-5.2 3 -6.2 0.3 -5.5 -1.4C-4.8 -3.1 -2.4 -3.8 -0.5 -3.7C1.5 -3.5 2.9 -2.5 3.5 -0.9Z" stroke="#0e4a86" fill="none" stroke-width="1"></path></g><g transform="translate(1511 694)"><path d="M2.9 -0.6C3.3 0.6 3.1 2.3 2.1 3.1C1.1 3.8 -0.6 3.6 -1.7 2.7C-2.7 1.9 -3 0.4 -2.6 -0.7C-2.2 -1.7 -1.1 -2.4 0 -2.4C1.2 -2.4 2.4 -1.8 2.9 -0.6Z" stroke="#0e4a86" fill="none" stroke-width="1"></path></g><g transform="translate(1147 401)"><path d="M4.1 -1.6C4.7 0.6 4.2 2.8 2.7 4C1.2 5.1 -1.3 5.1 -2.9 4C-4.5 2.8 -5.3 0.4 -4.7 -1.8C-4 -3.9 -2 -5.9 -0.1 -5.8C1.7 -5.8 3.4 -3.7 4.1 -1.6Z" stroke="#0e4a86" fill="none" stroke-width="1"></path></g><g transform="translate(839 421)"><path d="M3.9 -1.7C4.6 0.9 4.4 3.3 3 4.4C1.6 5.5 -1 5.2 -3.4 3.7C-5.8 2.1 -8.1 -0.6 -7.5 -3.1C-6.9 -5.6 -3.4 -7.8 -0.9 -7.5C1.6 -7.2 3.2 -4.4 3.9 -1.7Z" stroke="#0e4a86" fill="none" stroke-width="1"></path></g><g transform="translate(1253 1059)"><path d="M1.3 -0.6C1.6 0.4 1.6 1.3 0.8 2C0.1 2.7 -1.3 3.3 -2.1 2.7C-2.9 2.2 -3 0.6 -2.5 -0.6C-2 -1.8 -1 -2.6 -0.2 -2.6C0.5 -2.5 1 -1.5 1.3 -0.6Z" stroke="#0e4a86" fill="none" stroke-width="1"></path></g><g transform="translate(1701 468)"><path d="M6.9 -0.9C8.7 3.3 9.7 9 7.5 10.7C5.4 12.3 0 9.8 -4.1 6.6C-8.2 3.4 -11 -0.5 -10.1 -3.4C-9.2 -6.3 -4.6 -8.2 -1 -7.9C2.5 -7.6 5.1 -5 6.9 -0.9Z" stroke="#0e4a86" fill="none" stroke-width="1"></path></g><g transform="translate(577 277)"><path d="M8.9 -3.3C10.5 2.1 10.1 7.7 7.2 9.7C4.4 11.7 -0.9 10 -3.7 7.4C-6.5 4.8 -6.9 1.2 -5.8 -3.3C-4.8 -7.9 -2.4 -13.5 0.6 -13.7C3.6 -13.9 7.3 -8.7 8.9 -3.3Z" stroke="#0e4a86" fill="none" stroke-width="1"></path></g><g transform="translate(184 862)"><path d="M6.6 -1.4C7.3 0 5.7 2.9 3.6 4.2C1.5 5.6 -1.2 5.4 -2.6 4.2C-4.1 3.1 -4.3 0.8 -3.6 -0.5C-3 -1.8 -1.5 -2.2 0.7 -2.5C2.9 -2.7 5.9 -2.8 6.6 -1.4Z" stroke="#0e4a86" fill="none" stroke-width="1"></path></g><g transform="translate(1895 528)"><path d="M12.8 -2.7C14.4 0.5 11.7 6.5 7.6 9.2C3.5 11.8 -2.1 11.2 -5.7 8.4C-9.3 5.7 -11 0.8 -9.7 -2.1C-8.4 -5 -4.2 -5.8 0.7 -6.1C5.7 -6.3 11.3 -5.9 12.8 -2.7Z" stroke="#0e4a86" fill="none" stroke-width="1"></path></g><g transform="translate(1505 18)"><path d="M3.9 -1.8C4.2 -0.3 3 1.1 1.5 2.2C0 3.3 -1.8 4.2 -2.7 3.6C-3.5 3 -3.3 1 -2.7 -0.9C-2.1 -2.8 -1 -4.6 0.4 -4.7C1.8 -4.8 3.6 -3.3 3.9 -1.8Z" stroke="#0e4a86" fill="none" stroke-width="1"></path></g><g transform="translate(1602 786)"><path d="M9.5 -2.3C10.7 0.7 9.1 5.5 5.9 7.6C2.8 9.8 -1.8 9.3 -5 7C-8.2 4.6 -10 0.4 -8.9 -2.4C-7.9 -5.2 -3.9 -6.6 0.1 -6.6C4.1 -6.7 8.2 -5.3 9.5 -2.3Z" stroke="#0e4a86" fill="none" stroke-width="1"></path></g><g transform="translate(726 955)"><path d="M3.3 -1.3C3.6 -0.1 2.8 1.3 1.2 2.7C-0.4 4.1 -2.8 5.6 -4.4 4.8C-6 3.9 -6.8 0.7 -6 -1.3C-5.1 -3.3 -2.6 -4.1 -0.5 -3.9C1.5 -3.8 2.9 -2.6 3.3 -1.3Z" stroke="#0e4a86" fill="none" stroke-width="1"></path></g><g transform="translate(1450 1048)"><path d="M1.2 -0.3C1.3 0.2 1.2 0.8 0.5 1.5C-0.2 2.2 -1.4 2.9 -2.3 2.4C-3.3 2 -3.9 0.2 -3.5 -0.6C-3 -1.5 -1.5 -1.4 -0.5 -1.3C0.5 -1.1 1 -0.8 1.2 -0.3Z" stroke="#0e4a86" fill="none" stroke-width="1"></path></g><g transform="translate(330 131)"><path d="M2.1 -0.7C2.3 0 1.8 1 1.3 1.3C0.7 1.5 0.1 1.2 -0.4 0.8C-0.9 0.4 -1.1 0 -1 -0.6C-0.9 -1.1 -0.5 -1.8 0.2 -1.9C0.9 -1.9 1.8 -1.4 2.1 -0.7Z" stroke="#0e4a86" fill="none" stroke-width="1"></path></g><g transform="translate(1158 947)"><path d="M4.6 -2.1C5.4 1.3 5.4 4.3 3.6 5.8C1.8 7.3 -1.7 7.3 -5.4 5.2C-9 3 -12.8 -1.2 -11.9 -4.6C-11 -8 -5.5 -10.5 -1.8 -9.9C1.8 -9.3 3.7 -5.6 4.6 -2.1Z" stroke="#0e4a86" fill="none" stroke-width="1"></path></g><g transform="translate(94 813)"><path d="M7.7 -2.7C9.5 2.8 9.9 8.5 6.8 11.2C3.8 13.8 -2.8 13.4 -7.3 10.1C-11.8 6.8 -14.2 0.7 -12.6 -4.6C-11 -9.8 -5.5 -14.3 -1.3 -13.8C3 -13.4 6 -8.2 7.7 -2.7Z" stroke="#0e4a86" fill="none" stroke-width="1"></path></g><g transform="translate(1132 141)"><path d="M5.6 -0.5C7 2.5 7.7 7.1 6.1 8.1C4.5 9.2 0.7 6.8 -2.7 4.3C-6 1.7 -8.7 -1 -8.2 -2.8C-7.6 -4.6 -3.8 -5.6 -0.9 -5.3C2.1 -5 4.2 -3.5 5.6 -0.5Z" stroke="#0e4a86" fill="none" stroke-width="1"></path></g><g transform="translate(141 307)"><path d="M3.3 -1.5C3.5 -0.4 2.4 0.7 1.3 1.5C0.1 2.3 -1.1 2.8 -1.8 2.3C-2.5 1.8 -2.7 0.5 -2.3 -0.9C-1.9 -2.2 -0.9 -3.5 0.3 -3.6C1.5 -3.7 3.1 -2.6 3.3 -1.5Z" stroke="#0e4a86" fill="none" stroke-width="1"></path></g><g transform="translate(385 227)"><path d="M16.1 -3.8C18 0.5 14.7 8.1 10.2 10.4C5.8 12.7 0.4 9.9 -3 6.8C-6.3 3.8 -7.4 0.5 -6.6 -2.5C-5.7 -5.4 -2.9 -8.1 2.1 -8.8C7.1 -9.5 14.3 -8.2 16.1 -3.8Z" stroke="#0e4a86" fill="none" stroke-width="1"></path></g><g transform="translate(411 289)"><path d="M2.7 -0.5C3.1 0.4 2.8 1.9 1.8 2.7C0.8 3.4 -0.8 3.4 -1.6 2.7C-2.4 2 -2.2 0.7 -1.8 -0.2C-1.4 -1.1 -0.7 -1.5 0.2 -1.6C1.1 -1.7 2.3 -1.4 2.7 -0.5Z" stroke="#0e4a86" fill="none" stroke-width="1"></path></g><g transform="translate(1089 1045)"><path d="M2.6 -0.7C2.9 0.2 2.5 1.5 1.8 1.9C1 2.4 0 1.9 -0.6 1.4C-1.2 0.8 -1.4 0.2 -1.2 -0.5C-1 -1.2 -0.5 -2 0.3 -2.1C1.1 -2.2 2.3 -1.6 2.6 -0.7Z" stroke="#0e4a86" fill="none" stroke-width="1"></path></g><g transform="translate(441 622)"><path d="M3.4 -0.9C4.1 1.1 4.2 3.6 2.9 4.7C1.6 5.8 -1.2 5.7 -3.1 4.3C-5.1 2.9 -6.1 0.3 -5.5 -1.7C-4.8 -3.7 -2.4 -5 -0.5 -4.9C1.3 -4.7 2.7 -3 3.4 -0.9Z" stroke="#0e4a86" fill="none" stroke-width="1"></path></g><g transform="translate(270 886)"><path d="M9.4 -1.4C11.2 2.6 11.1 8.9 7.5 12C3.8 15.1 -3.5 15 -6.9 12C-10.2 9 -9.7 3 -7.9 -1C-6.1 -5 -3 -7.1 0.4 -7.3C3.8 -7.4 7.5 -5.5 9.4 -1.4Z" stroke="#0e4a86" fill="none" stroke-width="1"></path></g><g transform="translate(1001 1066)"><path d="M6.8 -0.4C8.5 2.8 9.1 8.1 7.2 9.3C5.4 10.4 1 7.5 -1.5 5C-3.9 2.5 -4.6 0.4 -4 -1.3C-3.5 -3 -1.7 -4.4 0.4 -4.5C2.6 -4.6 5.2 -3.6 6.8 -0.4Z" stroke="#0e4a86" fill="none" stroke-width="1"></path></g><g transform="translate(1617 849)"><path d="M1.9 -0.4C2.2 0.3 2 1.3 1.3 1.8C0.6 2.4 -0.5 2.3 -1.1 1.8C-1.7 1.3 -1.7 0.4 -1.5 -0.2C-1.2 -0.9 -0.6 -1.1 0.1 -1.2C0.8 -1.2 1.6 -1 1.9 -0.4Z" stroke="#0e4a86" fill="none" stroke-width="1"></path></g><g transform="translate(160 1077)"><path d="M3.5 -0.2C4.3 1.6 4.9 4.5 3.5 5.7C2.1 6.9 -1.1 6.4 -2.8 4.9C-4.5 3.4 -4.7 0.9 -4 -0.7C-3.2 -2.3 -1.6 -3 -0.2 -2.9C1.3 -2.9 2.6 -2.1 3.5 -0.2Z" stroke="#0e4a86" fill="none" stroke-width="1"></path></g><g transform="translate(852 95)"><path d="M5.6 -1C7 2.4 7.6 6.8 6.1 7.8C4.6 8.7 0.9 6.2 -1.3 4C-3.6 1.9 -4.5 0.1 -4.1 -2.1C-3.6 -4.2 -1.8 -6.6 0.2 -6.7C2.1 -6.7 4.3 -4.4 5.6 -1Z" stroke="#0e4a86" fill="none" stroke-width="1"></path></g><g transform="translate(1135 708)"><path d="M13 -4.2C14.3 -0.2 11.1 5.4 7.1 7.8C3.1 10.3 -1.8 9.7 -5 7.3C-8.2 4.9 -9.8 0.6 -8.7 -3.1C-7.6 -6.9 -3.8 -10 1 -10.3C5.8 -10.7 11.7 -8.2 13 -4.2Z" stroke="#0e4a86" fill="none" stroke-width="1"></path></g><g transform="translate(112 526)"><path d="M7.8 -1.3C9.2 1.7 8.8 6.6 5.6 9.2C2.5 11.9 -3.4 12.3 -6.8 9.7C-10.2 7.1 -11.2 1.6 -9.6 -1.6C-8.1 -4.8 -4.1 -5.7 -0.4 -5.6C3.2 -5.4 6.4 -4.3 7.8 -1.3Z" stroke="#0e4a86" fill="none" stroke-width="1"></path></g><g transform="translate(343 403)"><path d="M10.1 -3.9C11.2 0.3 9.1 4.9 5 8.1C1 11.3 -5 13.2 -7.4 11.2C-9.9 9.1 -8.8 3.3 -7 -1.8C-5.2 -6.9 -2.6 -11.3 0.9 -11.6C4.5 -11.9 8.9 -8.1 10.1 -3.9Z" stroke="#0e4a86" fill="none" stroke-width="1"></path></g><g transform="translate(1386 77)"><path d="M7.6 -2.6C8.9 1.3 8.2 5.8 6.1 6.9C4.1 8 0.8 5.8 -2.1 3.6C-4.9 1.3 -7.2 -0.9 -6.8 -3.7C-6.4 -6.5 -3.2 -9.8 0 -9.8C3.2 -9.8 6.4 -6.5 7.6 -2.6Z" stroke="#0e4a86" fill="none" stroke-width="1"></path></g><g transform="translate(1223 801)"><path d="M3.5 -0.8C4 0.6 3.7 2.6 2.5 3.4C1.4 4.3 -0.6 3.9 -2.8 2.6C-5 1.3 -7.5 -1 -7 -2.2C-6.6 -3.3 -3.3 -3.5 -0.9 -3.2C1.4 -2.8 2.9 -2.1 3.5 -0.8Z" stroke="#0e4a86" fill="none" stroke-width="1"></path></g><g transform="translate(1154 1060)"><path d="M8.3 -4C8.8 -1.3 5.8 1.2 2.6 3.6C-0.7 6 -4.1 8.1 -6.3 6.9C-8.5 5.7 -9.5 1.2 -8.2 -2.6C-7 -6.4 -3.5 -9.5 0.2 -9.6C3.9 -9.6 7.9 -6.7 8.3 -4Z" stroke="#0e4a86" fill="none" stroke-width="1"></path></g><g transform="translate(1185 36)"><path d="M13.6 -4C14.9 -0.5 11.2 4.9 6.6 8C2 11.1 -3.5 11.7 -7.2 9.2C-10.9 6.7 -12.9 0.9 -11.4 -2.9C-9.9 -6.7 -4.9 -8.6 0.6 -8.8C6.2 -9 12.4 -7.5 13.6 -4Z" stroke="#0e4a86" fill="none" stroke-width="1"></path></g><g transform="translate(1876 1040)"><path d="M7.1 -1.9C8.2 1.1 7.4 5.1 5.5 6.1C3.7 7.1 0.7 5.1 -2.3 3C-5.2 0.9 -8.2 -1.4 -7.8 -3.3C-7.4 -5.3 -3.7 -7 -0.4 -6.8C3 -6.7 6 -4.8 7.1 -1.9Z" stroke="#0e4a86" fill="none" stroke-width="1"></path></g><g transform="translate(1447 125)"><path d="M4.1 -2.6C4.7 0.3 3.9 2.3 2.4 3.4C1 4.5 -1.2 4.6 -2.9 3.5C-4.5 2.4 -5.6 0.1 -5 -2.8C-4.4 -5.8 -2.2 -9.4 -0.2 -9.4C1.8 -9.3 3.6 -5.5 4.1 -2.6Z" stroke="#0e4a86" fill="none" stroke-width="1"></path></g><g transform="translate(939 983)"><path d="M7.5 -2.9C8.1 -0.5 5.9 2.3 2.9 4.5C0 6.8 -3.7 8.5 -5 7.4C-6.4 6.3 -5.4 2.4 -4.2 -0.8C-2.9 -4 -1.5 -6.5 1 -6.8C3.4 -7.1 6.8 -5.2 7.5 -2.9Z" stroke="#0e4a86" fill="none" stroke-width="1"></path></g><g transform="translate(1241 156)"><path d="M4.2 -2.2C4.8 0.4 4.2 2.6 2.2 4.4C0.2 6.1 -3.1 7.4 -5.9 5.9C-8.7 4.4 -11.1 0 -10 -3.3C-8.9 -6.6 -4.5 -8.8 -1.3 -8.4C1.8 -8 3.6 -4.9 4.2 -2.2Z" stroke="#0e4a86" fill="none" stroke-width="1"></path></g><g transform="translate(1382 424)"><path d="M9 -4.9C9.7 -0.9 6.8 2.3 3.2 5C-0.4 7.7 -4.7 10.1 -6.7 8.7C-8.6 7.4 -8.3 2.4 -6.8 -2.8C-5.3 -8 -2.6 -13.4 0.8 -13.6C4.2 -13.9 8.4 -9 9 -4.9Z" stroke="#0e4a86" fill="none" stroke-width="1"></path></g><g transform="translate(111 78)"><path d="M2.5 -1.1C2.8 -0.1 2.1 0.9 1 1.8C-0.1 2.7 -1.6 3.5 -2.8 2.8C-4.1 2.2 -5.1 0.1 -4.6 -1.3C-4 -2.7 -2 -3.3 -0.4 -3.2C1.2 -3.1 2.3 -2.1 2.5 -1.1Z" stroke="#0e4a86" fill="none" stroke-width="1"></path></g><g transform="translate(835 346)"><path d="M2.7 -1.8C3.1 0.1 2.5 1.4 1.3 2.5C0 3.6 -2 4.5 -2.9 3.9C-3.8 3.3 -3.7 1.1 -3 -1.3C-2.3 -3.7 -1.2 -6.3 0 -6.3C1.2 -6.3 2.4 -3.7 2.7 -1.8Z" stroke="#0e4a86" fill="none" stroke-width="1"></path></g><g transform="translate(1797 1028)"><path d="M2 -0.7C2.3 0.2 1.9 1.2 1.2 1.6C0.6 2.1 -0.4 2 -1 1.6C-1.5 1.1 -1.7 0.3 -1.4 -0.5C-1.2 -1.3 -0.6 -2.1 0.1 -2.1C0.9 -2.2 1.7 -1.5 2 -0.7Z" stroke="#0e4a86" fill="none" stroke-width="1"></path></g><g transform="translate(1401 738)"><path d="M15.2 -4.3C17.3 1.4 14.9 9.2 10.1 12.3C5.3 15.5 -1.8 13.8 -6.7 10.1C-11.5 6.3 -14.2 0.4 -12.7 -4.4C-11.2 -9.3 -5.6 -13.2 0.5 -13.4C6.6 -13.5 13.2 -10 15.2 -4.3Z" stroke="#0e4a86" fill="none" stroke-width="1"></path></g><g transform="translate(600 700)"><path d="M10.1 -2.9C11.8 1.8 10.8 7.7 6.9 10.9C2.9 14.1 -4.1 14.7 -8 11.7C-11.9 8.7 -12.7 2.1 -10.9 -2.8C-9.1 -7.8 -4.5 -11.2 -0.1 -11.2C4.2 -11.1 8.5 -7.6 10.1 -2.9Z" stroke="#0e4a86" fill="none" stroke-width="1"></path></g><g transform="translate(724 1076)"><path d="M7.1 -2.2C7.5 -1.1 4.9 1.1 2.4 2.8C-0.1 4.5 -2.6 5.7 -3.9 4.9C-5.2 4 -5.3 1.1 -4.5 -0.6C-3.6 -2.3 -1.8 -2.9 0.8 -3.2C3.3 -3.4 6.7 -3.3 7.1 -2.2Z" stroke="#0e4a86" fill="none" stroke-width="1"></path></g><g transform="translate(741 590)"><path d="M7.3 -3.4C8 -0.2 6.1 2.8 3.7 4.3C1.4 5.8 -1.4 5.8 -3.6 4.4C-5.7 2.9 -7.2 0 -6.5 -3.2C-5.8 -6.4 -2.9 -10 0.2 -10.1C3.3 -10.1 6.6 -6.7 7.3 -3.4Z" stroke="#0e4a86" fill="none" stroke-width="1"></path></g><g transform="translate(1388 23)"><path d="M4.1 -1.2C4.5 -0.3 3.2 1.2 1.6 2.4C0 3.7 -2 4.6 -3.4 3.8C-4.8 3 -5.6 0.4 -5 -0.9C-4.3 -2.3 -2.1 -2.5 -0.1 -2.5C1.9 -2.4 3.8 -2.1 4.1 -1.2Z" stroke="#0e4a86" fill="none" stroke-width="1"></path></g><g transform="translate(1498 1014)"><path d="M9.4 -3.2C11 1.7 10.2 7.3 7.4 9C4.7 10.7 0.1 8.5 -3.9 5.6C-7.9 2.6 -11.2 -1 -10.4 -4.9C-9.7 -8.7 -4.8 -12.8 -0.5 -12.6C3.9 -12.5 7.9 -8.2 9.4 -3.2Z" stroke="#0e4a86" fill="none" stroke-width="1"></path></g><g transform="translate(1738 506)"><path d="M1.6 -0.6C1.9 0.2 1.6 1.1 1 1.5C0.4 2 -0.6 2.1 -1.3 1.6C-2 1.1 -2.4 0.1 -2.1 -0.7C-1.9 -1.6 -0.9 -2.2 -0.1 -2.2C0.7 -2.1 1.4 -1.4 1.6 -0.6Z" stroke="#0e4a86" fill="none" stroke-width="1"></path></g><g transform="translate(913 738)"><path d="M1.9 -0.8C2.3 0.5 2.2 1.7 1.6 2.1C1 2.5 -0.1 2.1 -1.6 1.2C-3.2 0.4 -5.1 -1 -4.9 -2C-4.7 -3.1 -2.3 -3.9 -0.8 -3.6C0.8 -3.4 1.6 -2.1 1.9 -0.8Z" stroke="#0e4a86" fill="none" stroke-width="1"></path></g><g transform="translate(1295 950)"><path d="M7.4 -2.4C8.2 0.2 6.7 3.6 3.9 5.6C1.2 7.7 -2.7 8.4 -5.2 6.7C-7.6 5.1 -8.6 1 -7.5 -2C-6.4 -4.9 -3.2 -6.8 0 -6.8C3.3 -6.8 6.6 -5 7.4 -2.4Z" stroke="#0e4a86" fill="none" stroke-width="1"></path></g><g transform="translate(277 570)"><path d="M3.1 -1.1C3.6 0.6 3.3 2.4 2.1 3.4C0.8 4.4 -1.4 4.7 -2.7 3.7C-4.1 2.7 -4.6 0.5 -4 -1.2C-3.4 -3 -1.7 -4.3 -0.2 -4.2C1.3 -4.1 2.6 -2.7 3.1 -1.1Z" stroke="#0e4a86" fill="none" stroke-width="1"></path></g><g transform="translate(1859 339)"><path d="M3 -1.5C3.4 0.3 2.9 1.8 1.5 3.1C0 4.5 -2.4 5.5 -4.2 4.6C-5.9 3.6 -7 0.5 -6.2 -1.8C-5.4 -4.1 -2.7 -5.6 -0.7 -5.4C1.3 -5.2 2.6 -3.2 3 -1.5Z" stroke="#0e4a86" fill="none" stroke-width="1"></path></g><g transform="translate(376 641)"><path d="M5.3 -2.3C5.5 -0.9 3.6 0.7 1.4 2.4C-0.8 4.1 -3.3 6 -4.6 5.3C-5.9 4.6 -6 1.3 -5.1 -1.1C-4.1 -3.5 -2.1 -5 0.2 -5.1C2.5 -5.2 5 -3.8 5.3 -2.3Z" stroke="#0e4a86" fill="none" stroke-width="1"></path></g><g transform="translate(1903 878)"><path d="M10.8 -2.7C12.5 1.6 11.3 7.7 7.6 10.4C3.9 13.1 -2.3 12.3 -5.1 9.7C-7.8 7 -7.3 2.4 -5.9 -1.5C-4.5 -5.4 -2.2 -8.7 1.2 -9.1C4.6 -9.5 9.1 -7 10.8 -2.7Z" stroke="#0e4a86" fill="none" stroke-width="1"></path></g><g transform="translate(243 1065)"><path d="M7.5 -2.8C8.3 -0.2 6.3 2.8 3.9 4.3C1.6 5.7 -1.1 5.4 -3.5 3.9C-5.9 2.3 -8.1 -0.5 -7.4 -3C-6.8 -5.4 -3.4 -7.5 0 -7.5C3.4 -7.5 6.8 -5.4 7.5 -2.8Z" stroke="#0e4a86" fill="none" stroke-width="1"></path></g><g transform="translate(694 852)"><path d="M6.1 -0.6C7.2 1.6 7.1 5.6 5.4 6.7C3.7 7.8 0.4 5.9 -1.7 4C-3.7 2.1 -4.5 0.2 -4 -1.1C-3.5 -2.4 -1.7 -3.2 0.4 -3.3C2.4 -3.4 4.9 -2.9 6.1 -0.6Z" stroke="#0e4a86" fill="none" stroke-width="1"></path></g><g transform="translate(1348 557)"><path d="M2.9 -1.2C3.2 -0.1 2.4 1 1.3 1.8C0.2 2.6 -1.1 3 -2 2.4C-3 1.8 -3.5 0.2 -3.1 -1C-2.7 -2.3 -1.3 -3.4 0 -3.4C1.3 -3.4 2.7 -2.3 2.9 -1.2Z" stroke="#0e4a86" fill="none" stroke-width="1"></path></g><g transform="translate(1462 210)"><path d="M4.3 -2.4C4.9 0.3 4.1 2.5 2.6 3.6C1 4.7 -1.3 4.8 -4.1 3.3C-7 1.8 -10.4 -1.4 -9.8 -4.2C-9.2 -7 -4.6 -9.4 -1.4 -9C1.9 -8.5 3.7 -5.2 4.3 -2.4Z" stroke="#0e4a86" fill="none" stroke-width="1"></path></g><g transform="translate(1866 571)"><path d="M12.9 -3.6C14.5 0.7 12 7 7.4 10.4C2.8 13.8 -4.1 14.4 -7.9 11.5C-11.7 8.6 -12.5 2.1 -10.7 -2.5C-8.8 -7.1 -4.4 -9.9 0.6 -10.1C5.6 -10.3 11.3 -7.9 12.9 -3.6Z" stroke="#0e4a86" fill="none" stroke-width="1"></path></g><g transform="translate(1447 528)"><path d="M15.8 -5.7C17.5 0.1 13.8 7.1 8 11.3C2.2 15.6 -5.7 17.2 -10.2 14C-14.6 10.7 -15.6 2.7 -13.4 -4C-11.1 -10.6 -5.5 -15.7 0.7 -16C7 -16.2 14.1 -11.5 15.8 -5.7Z" stroke="#0e4a86" fill="none" stroke-width="1"></path></g><g transform="translate(819 142)"><path d="M13.2 -4.2C14 -1.7 9.5 2.5 4.8 5.7C0.1 8.9 -4.6 10.9 -8.9 8.7C-13.2 6.4 -17 -0.2 -15.4 -3.6C-13.9 -7.1 -6.9 -7.5 -0.4 -7.4C6.2 -7.2 12.3 -6.6 13.2 -4.2Z" stroke="#0e4a86" fill="none" stroke-width="1"></path></g><g transform="translate(1628 498)"><path d="M4.6 -1.9C5.4 0.9 5.1 3.7 3.7 4.6C2.3 5.6 -0.2 4.6 -2.7 2.9C-5.2 1.3 -7.8 -1 -7.4 -3.4C-6.9 -5.8 -3.5 -8.2 -0.8 -7.9C1.9 -7.7 3.8 -4.8 4.6 -1.9Z" stroke="#0e4a86" fill="none" stroke-width="1"></path></g><g transform="translate(1762 160)"><path d="M4.1 -1.2C4.8 0.7 4.3 3 2.8 4.2C1.2 5.5 -1.5 5.6 -3.2 4.4C-5 3.1 -5.8 0.5 -5.2 -1.5C-4.5 -3.4 -2.2 -4.7 -0.2 -4.6C1.7 -4.5 3.5 -3.1 4.1 -1.2Z" stroke="#0e4a86" fill="none" stroke-width="1"></path></g><g transform="translate(991 633)"><path d="M4.7 -2C5.1 -0.3 3.8 1.5 1.8 3.1C-0.1 4.6 -2.6 5.8 -3.7 5.1C-4.8 4.3 -4.4 1.5 -3.5 -0.9C-2.6 -3.3 -1.3 -5.2 0.4 -5.4C2.1 -5.5 4.3 -3.8 4.7 -2Z" stroke="#0e4a86" fill="none" stroke-width="1"></path></g><g transform="translate(1883 289)"><path d="M9.1 -2C10.4 1.1 9.1 6 5.7 8.7C2.3 11.3 -3.3 11.8 -7.4 9C-11.6 6.3 -14.3 0.4 -12.8 -3C-11.4 -6.3 -5.7 -7.1 -0.9 -6.8C3.9 -6.5 7.7 -5.1 9.1 -2Z" stroke="#0e4a86" fill="none" stroke-width="1"></path></g><g transform="translate(1897 457)"><path d="M2.7 -1C3 -0.1 2.3 1.1 1.5 1.6C0.7 2 -0.3 1.8 -1.1 1.3C-2 0.7 -2.8 -0.2 -2.6 -1.1C-2.4 -2 -1.2 -2.7 0 -2.8C1.2 -2.8 2.4 -2 2.7 -1Z" stroke="#0e4a86" fill="none" stroke-width="1"></path></g><g transform="translate(1164 526)"><path d="M9.9 -2.8C11 0.2 8.9 4.7 5.4 7.2C1.9 9.7 -3 10.2 -6.2 8C-9.5 5.7 -11.3 0.8 -10 -2.5C-8.7 -5.8 -4.3 -7.3 0 -7.4C4.4 -7.4 8.8 -5.8 9.9 -2.8Z" stroke="#0e4a86" fill="none" stroke-width="1"></path></g><g transform="translate(1695 785)"><path d="M2.9 -0.2C3.7 1.7 4.4 4.4 3.4 5.3C2.4 6.2 -0.4 5.3 -2.3 3.8C-4.1 2.3 -4.9 0.2 -4.4 -1.2C-3.9 -2.7 -1.9 -3.5 -0.5 -3.3C1 -3.2 2 -2.1 2.9 -0.2Z" stroke="#0e4a86" fill="none" stroke-width="1"></path></g><g transform="translate(1008 692)"><path d="M2 -0.6C2.3 0.1 1.9 1.1 1.3 1.4C0.8 1.8 0 1.4 -0.8 0.9C-1.6 0.3 -2.4 -0.4 -2.3 -0.9C-2.2 -1.4 -1.1 -1.8 -0.1 -1.8C0.9 -1.7 1.8 -1.3 2 -0.6Z" stroke="#0e4a86" fill="none" stroke-width="1"></path></g><g transform="translate(1621 997)"><path d="M4.6 -2.2C5 -0.2 3.7 1.6 2.1 2.7C0.5 3.8 -1.5 4.3 -3.4 3.2C-5.4 2.2 -7.4 -0.4 -6.8 -2.6C-6.2 -4.8 -3.1 -6.6 -0.5 -6.4C2.1 -6.2 4.2 -4.1 4.6 -2.2Z" stroke="#0e4a86" fill="none" stroke-width="1"></path></g><g transform="translate(1013 313)"><path d="M6 -2.4C6.6 -0.2 5 2.3 2.7 4C0.4 5.7 -2.5 6.7 -4.7 5.3C-6.9 4 -8.3 0.4 -7.4 -2.3C-6.5 -5 -3.2 -6.9 -0.3 -6.8C2.7 -6.7 5.5 -4.7 6 -2.4Z" stroke="#0e4a86" fill="none" stroke-width="1"></path></g><g transform="translate(1676 1052)"><path d="M3.5 -0.8C4 0.2 3.3 1.9 2.3 2.5C1.3 3.1 -0.1 2.5 -1.1 1.7C-2.2 0.9 -2.9 -0.1 -2.7 -0.8C-2.4 -1.5 -1.2 -1.9 0.2 -2C1.5 -2 3.1 -1.8 3.5 -0.8Z" stroke="#0e4a86" fill="none" stroke-width="1"></path></g><g transform="translate(1773 1074)"><path d="M14.4 -3.9C16.2 0.7 13.3 7.6 9 10.3C4.6 13 -1.3 11.5 -5.3 8.3C-9.4 5.2 -11.5 0.4 -10.3 -3.5C-9.1 -7.4 -4.5 -10.3 0.9 -10.6C6.3 -10.9 12.7 -8.5 14.4 -3.9Z" stroke="#0e4a86" fill="none" stroke-width="1"></path></g><g transform="translate(24 767)"><path d="M7.5 -2C8.6 1.1 7.8 5.3 5.7 6.4C3.7 7.5 0.6 5.5 -2.3 3.4C-5.1 1.3 -7.6 -1 -7.2 -3.2C-6.8 -5.3 -3.4 -7.3 -0.1 -7.3C3.2 -7.2 6.3 -5.2 7.5 -2Z" stroke="#0e4a86" fill="none" stroke-width="1"></path></g><g transform="translate(499 732)"><path d="M3.8 -0.8C5 2.6 6.2 6.4 4.6 8C3 9.6 -1.5 8.9 -4.8 6.5C-8 4.2 -10 0.1 -9 -2.9C-8 -6 -4 -8 -1.4 -7.6C1.3 -7.1 2.6 -4.2 3.8 -0.8Z" stroke="#0e4a86" fill="none" stroke-width="1"></path></g><g transform="translate(1691 381)"><path d="M8.4 -2.9C9.3 0.1 7.4 3.8 4.2 6.1C1.1 8.5 -3.2 9.5 -7.1 7.3C-10.9 5.1 -14.2 -0.3 -12.9 -3.8C-11.6 -7.2 -5.8 -8.8 -1 -8.5C3.7 -8.1 7.5 -5.9 8.4 -2.9Z" stroke="#0e4a86" fill="none" stroke-width="1"></path></g><g transform="translate(1634 92)"><path d="M7.3 -3C9.1 3.2 9.9 9 7.8 10.5C5.6 12.1 0.5 9.3 -2.3 6.5C-5.1 3.7 -5.6 0.9 -4.8 -3.9C-4 -8.6 -2 -15.4 0.4 -15.5C2.7 -15.6 5.5 -9.1 7.3 -3Z" stroke="#0e4a86" fill="none" stroke-width="1"></path></g><g transform="translate(123 756)"><path d="M11.4 -4.5C12.5 -0.3 9.5 4.4 6.1 6.5C2.6 8.6 -1.5 8.1 -5.8 5.5C-10.2 2.9 -15 -1.8 -14 -5.7C-13.1 -9.6 -6.6 -12.7 -0.7 -12.5C5.1 -12.2 10.3 -8.6 11.4 -4.5Z" stroke="#0e4a86" fill="none" stroke-width="1"></path></g></g></svg>